<?xml version="1.0" encoding="UTF-8"?>
<svg xmlns="http://www.w3.org/2000/svg" viewBox="0 0 3072 990" width="250" height="81">

<g transform="translate(0.000000,990.000000) scale(0.100000,-0.100000)"
fill="#000000" stroke="none">
<path d="M1414 8551 c-10 -2 -22 -8 -26 -15 -11 -17 -9 -3014 2 -3061 5 -22
12 -148 16 -280 3 -132 11 -251 16 -265 5 -13 12 -74 15 -135 3 -60 10 -118
15 -128 5 -10 12 -61 15 -115 3 -53 9 -102 14 -108 4 -5 11 -37 14 -70 3 -32
12 -72 19 -89 8 -16 14 -52 15 -79 1 -27 5 -54 10 -60 8 -11 17 -42 41 -151
14 -64 38 -141 56 -182 8 -17 14 -42 14 -56 0 -14 5 -29 10 -32 6 -3 10 -14
10 -23 0 -10 9 -34 20 -55 11 -20 20 -43 20 -51 0 -7 6 -19 14 -25 7 -6 14
-23 14 -37 0 -15 4 -29 9 -33 17 -12 53 -78 53 -99 0 -11 5 -24 11 -28 6 -3
26 -38 45 -78 46 -94 153 -258 249 -379 25 -31 45 -60 45 -65 0 -4 25 -34 56
-67 159 -169 193 -205 233 -253 24 -29 50 -52 58 -52 7 0 13 -6 13 -13 0 -16
34 -50 42 -42 3 3 21 -9 41 -27 19 -18 70 -62 112 -98 43 -36 99 -84 125 -108
26 -23 52 -42 59 -42 6 0 11 -3 11 -7 0 -5 17 -19 38 -33 20 -14 41 -30 45
-37 4 -7 14 -13 22 -13 7 0 15 -4 17 -9 3 -10 140 -104 205 -141 25 -14 49
-33 54 -43 6 -9 17 -17 24 -17 8 0 15 -4 15 -10 0 -5 6 -10 13 -10 8 0 22 -9
32 -20 9 -10 20 -18 24 -18 9 3 68 -30 73 -39 1 -5 24 -19 51 -33 26 -13 47
-28 47 -32 0 -5 6 -8 14 -8 7 0 19 -7 26 -15 7 -8 19 -15 28 -15 16 0 117 -64
127 -80 3 -6 15 -10 25 -10 10 0 25 -6 32 -13 7 -6 35 -23 61 -37 26 -13 47
-28 47 -31 0 -4 14 -10 30 -14 17 -4 30 -11 30 -16 0 -15 57 -10 70 6 7 8 19
15 26 15 8 0 36 13 62 30 27 16 54 30 61 30 6 0 11 4 11 10 0 5 12 13 28 16
15 4 29 10 32 13 3 3 25 16 50 29 62 32 104 56 110 62 13 14 111 72 125 74 9
1 31 17 49 34 19 18 41 32 49 32 8 0 20 7 27 15 7 8 18 15 25 15 8 0 15 4 17
9 2 4 48 39 103 76 55 38 102 71 105 76 3 4 27 18 53 33 27 14 64 39 83 56 20
17 54 43 77 58 22 15 52 37 65 49 14 13 29 23 33 23 9 0 117 81 154 115 11 11
43 38 69 60 26 22 61 52 76 68 16 15 33 27 39 27 6 0 11 6 11 13 0 6 14 21 30
32 16 11 30 25 30 31 0 6 21 32 48 57 26 26 64 66 84 89 20 24 50 59 67 78 17
19 31 39 31 45 0 6 15 26 33 45 18 19 41 52 52 73 11 20 23 37 27 37 3 0 17
21 30 48 13 26 28 52 33 58 18 21 40 55 40 63 0 13 39 81 46 81 4 0 10 13 14
30 4 16 10 30 15 30 4 0 10 13 13 30 4 16 18 47 32 70 14 22 25 47 25 55 0 8
13 40 29 69 15 30 31 65 35 80 3 14 11 26 16 26 6 0 10 14 10 31 0 27 26 104
51 151 5 10 9 26 9 35 0 10 7 30 14 45 8 16 18 48 22 73 3 25 10 48 15 51 5 3
9 20 9 37 1 18 7 43 15 57 8 14 14 42 15 64 0 37 30 188 50 251 5 17 12 68 15
114 3 46 10 102 15 125 5 22 12 75 16 116 3 41 10 80 14 85 4 6 11 89 15 185
3 96 8 191 11 210 12 93 14 356 17 1773 2 1352 0 1527 -13 1527 -187 3 -5192
4 -5206 1z m5065 -158 c3 -4 4 -564 1 -1243 l-5 -1235 -2470 0 -2470 0 -3
1223 c-1 809 1 1230 8 1242 7 14 23 20 58 22 112 7 4875 -1 4881 -9z m-4082
-3182 c2 -258 6 -476 9 -486 6 -15 40 -16 433 -14 l426 3 3 -460 c1 -252 0
-474 -3 -491 l-6 -33 -430 -2 -430 -3 1 -477 c0 -506 -1 -520 -43 -448 -10 17
-22 30 -28 30 -5 0 -9 7 -9 15 0 7 -6 18 -13 22 -18 11 -147 181 -147 194 0 5
-13 24 -30 42 -16 18 -30 39 -30 48 0 9 -7 22 -15 29 -8 7 -15 19 -15 26 0 8
-3 14 -8 14 -10 0 -40 57 -48 93 -3 15 -10 27 -14 27 -4 0 -17 24 -29 53 -24
55 -48 110 -63 141 -5 10 -11 27 -13 37 -2 11 -11 26 -19 35 -9 8 -16 24 -16
35 0 11 -5 28 -12 38 -6 10 -8 25 -5 34 5 14 37 16 260 15 177 -1 260 3 275
11 l22 12 0 473 c0 423 -2 475 -16 480 -9 3 -184 6 -390 6 l-374 0 -14 23 c-9
14 -15 52 -15 109 -1 48 -6 100 -12 115 -6 15 -12 87 -15 158 -2 72 -9 175
-14 230 -16 165 -21 319 -12 332 6 10 107 13 423 15 227 2 419 -1 424 -5 6 -5
11 -179 12 -476z m2158 457 c3 -13 4 -859 3 -1882 l-3 -1859 -33 -17 c-19 -10
-41 -25 -50 -32 -9 -8 -48 -30 -87 -49 -38 -19 -71 -37 -73 -41 -2 -5 -10 -8
-17 -8 -8 0 -21 -7 -29 -16 -9 -8 -26 -17 -38 -19 -12 -3 -24 -9 -28 -14 -8
-14 -138 -81 -156 -81 -8 0 -14 -4 -14 -10 0 -15 -33 -12 -71 7 -19 9 -36 19
-39 22 -3 3 -23 15 -44 26 -22 11 -44 25 -50 30 -6 6 -33 21 -59 35 -26 13
-47 27 -47 31 0 3 -34 22 -75 43 -41 21 -75 42 -75 47 0 5 -11 11 -25 15 -14
3 -25 10 -25 14 0 5 -10 10 -22 12 -12 2 -28 14 -34 27 -16 31 -19 3675 -4
3715 l10 26 540 0 540 0 5 -22z m1919 6 c9 -23 5 -293 -5 -409 -5 -55 -11
-136 -14 -180 -8 -134 -37 -351 -48 -362 -3 -2 -176 -4 -384 -3 -354 1 -380
-1 -396 -18 -14 -16 -16 -64 -16 -467 0 -382 2 -453 15 -473 l15 -23 265 1
c147 1 268 -1 271 -4 9 -8 -7 -76 -17 -76 -6 0 -10 -10 -10 -23 0 -13 -7 -32
-15 -43 -8 -10 -15 -26 -15 -35 0 -9 -6 -22 -14 -28 -8 -7 -18 -27 -22 -44 -8
-37 -31 -85 -50 -105 -8 -7 -11 -18 -8 -23 3 -6 -1 -18 -9 -27 -13 -15 -35
-54 -98 -170 -9 -18 -23 -40 -29 -48 -7 -8 -20 -27 -29 -43 -31 -56 -74 -116
-108 -151 -18 -19 -33 -40 -33 -47 0 -7 -7 -13 -15 -13 -8 0 -15 -6 -15 -14 0
-19 -46 -66 -64 -66 -14 0 -16 55 -18 473 l-3 472 -427 5 c-234 3 -429 8 -432
11 -7 7 -10 968 -3 975 2 3 187 5 411 5 230 0 417 4 431 9 l25 10 0 463 c0
347 3 466 12 475 9 9 118 12 429 12 371 0 418 -2 423 -16z m-3206 -3261 c2
-335 2 -343 -17 -343 -11 0 -24 6 -28 13 -4 7 -20 18 -35 24 -16 7 -28 17 -28
23 0 5 -7 10 -15 10 -8 0 -15 4 -15 9 0 5 -12 12 -27 16 -15 3 -30 10 -33 13
-10 14 -96 78 -121 90 -14 7 -39 26 -57 43 -17 16 -35 29 -39 29 -7 0 -63 47
-135 114 -10 9 -20 16 -23 16 -16 0 -285 262 -285 277 0 11 82 13 428 11 l427
-3 3 -342z m2332 334 c0 -26 -290 -307 -316 -307 -3 0 -29 -20 -57 -44 -29
-24 -62 -47 -74 -50 -13 -4 -23 -11 -23 -15 0 -4 -26 -25 -57 -47 -32 -21 -65
-46 -73 -55 -9 -8 -46 -35 -83 -59 -37 -24 -67 -48 -67 -52 0 -4 -6 -8 -14 -8
-8 0 -28 -12 -45 -26 -17 -14 -37 -24 -43 -22 -10 4 -12 78 -10 344 2 186 6
342 9 347 2 4 195 7 429 7 341 0 424 -3 424 -13z M3307 8284 c-4 -4 -7 -31 -7
-61 0 -54 25 -110 64 -142 18 -15 21 -52 6 -67 -5 -5 -10 -64 -11 -131 -1
-118 0 -123 26 -160 40 -55 70 -75 123 -79 26 -2 59 -6 74 -9 14 -2 54 0 88 6
50 8 67 7 96 -7 19 -9 39 -25 45 -35 14 -26 22 -24 63 17 l37 37 67 -9 c114
-14 207 -7 238 18 45 36 74 76 88 119 17 51 22 164 7 173 -4 3 -14 26 -21 51
-12 42 -11 48 7 68 27 29 63 101 63 126 0 11 5 23 10 26 25 16 -4 64 -39 65
-13 0 -53 -17 -138 -59 -28 -13 -40 -14 -90 -2 -32 7 -85 17 -118 23 -81 13
-337 3 -400 -16 -69 -22 -86 -20 -155 13 -67 33 -112 45 -123 35z m373 -321
c22 -10 40 -23 40 -29 0 -6 7 -17 15 -24 18 -15 20 -51 3 -68 -7 -7 -42 -12
-85 -12 -67 0 -76 2 -104 29 -29 28 -48 89 -34 112 10 16 122 10 165 -8z m477
0 c3 -8 1 -19 -6 -26 -6 -6 -11 -23 -11 -38 0 -48 -40 -69 -129 -69 -47 0 -82
5 -89 12 -15 15 -16 54 -2 63 6 3 10 15 10 26 0 10 6 19 14 19 8 0 16 6 19 14
8 21 186 20 194 -1z M2369 7913 c-2 -77 -7 -107 -18 -111 -6 -2 -11 -14 -11
-27 0 -12 -6 -28 -14 -34 -8 -7 -17 -27 -20 -46 -4 -18 -12 -35 -18 -37 -11
-4 -15 -87 -6 -118 21 -67 100 -170 130 -170 18 0 44 32 70 86 12 24 26 44 30
44 12 0 10 168 -2 175 -5 3 -10 14 -10 23 0 9 -6 29 -14 43 -7 14 -16 39 -20
55 -11 46 -70 154 -83 154 -8 0 -13 -15 -14 -37z M5577 7888 c-4 -28 -11 -54
-17 -58 -6 -4 -13 -22 -15 -40 -3 -19 -8 -36 -12 -39 -5 -3 -17 -24 -28 -45
-26 -52 -27 -176 -2 -204 9 -10 17 -23 17 -28 0 -14 78 -94 91 -94 17 0 58 48
81 94 11 23 24 49 29 58 12 23 12 95 -1 103 -5 3 -12 32 -16 65 -4 33 -10 60
-13 60 -4 0 -18 32 -31 71 -23 66 -50 109 -69 109 -5 0 -11 -23 -14 -52z
M3324 7530 c-4 -22 -11 -43 -15 -46 -5 -3 -9 -54 -9 -114 0 -60 4 -111 9 -114
4 -3 11 -24 15 -47 4 -23 13 -51 21 -62 8 -12 15 -30 15 -40 0 -16 25 -64 41
-77 3 -3 14 -20 25 -39 18 -32 32 -51 69 -92 8 -9 15 -21 15 -28 0 -7 13 -26
30 -44 16 -18 30 -38 30 -44 0 -7 16 -35 36 -63 19 -27 40 -66 46 -86 5 -21
16 -44 24 -51 8 -8 14 -24 14 -37 0 -12 5 -27 10 -32 10 -10 27 -103 34 -183
3 -39 -25 -106 -49 -115 -9 -3 -53 -6 -98 -6 -67 0 -90 -5 -122 -23 -58 -33
-95 -118 -62 -145 20 -16 300 -26 328 -12 32 17 89 80 89 99 1 14 53 81 63 81
12 0 137 129 137 141 0 16 -54 79 -68 79 -10 0 -42 33 -42 43 0 4 16 7 35 7
28 0 38 5 44 23 10 27 6 41 -31 91 -37 53 -36 68 5 65 62 -4 75 0 79 24 6 40
32 24 53 -33 11 -30 23 -60 27 -66 4 -6 10 -38 14 -70 3 -33 12 -77 19 -99 7
-22 13 -66 14 -99 3 -77 -21 -106 -86 -106 -24 0 -51 -4 -61 -8 -9 -5 -30 -15
-47 -23 -29 -14 -57 -58 -70 -110 -8 -32 15 -45 47 -28 14 8 43 9 87 4 110
-13 242 -11 316 6 69 16 146 17 223 4 30 -5 41 -2 55 13 17 19 17 21 -3 54
-11 19 -37 43 -58 53 -20 10 -44 21 -53 26 -9 4 -38 8 -65 10 -51 2 -94 29
-94 57 0 8 14 30 30 49 35 40 37 48 10 70 -11 10 -20 23 -20 30 0 7 -4 13 -10
13 -22 0 -9 38 15 44 21 5 25 12 25 47 0 26 -5 42 -15 45 -31 12 -16 34 24 34
32 0 44 -5 59 -27 25 -36 52 -115 52 -153 0 -17 5 -30 10 -30 6 0 10 -6 10
-14 0 -7 14 -28 31 -45 l31 -32 81 16 c44 9 106 16 137 16 30 0 63 2 73 5 22
7 23 59 2 80 -8 9 -15 24 -15 34 0 10 -4 21 -9 24 -5 4 -12 24 -16 45 -4 22
-13 45 -21 52 -8 6 -14 17 -14 24 0 16 -30 73 -47 93 -7 7 -13 18 -13 24 0 7
-26 9 -76 6 -96 -6 -293 6 -319 19 -11 6 -54 27 -97 47 -42 20 -82 43 -88 51
-7 8 -19 15 -26 15 -8 0 -14 4 -14 9 0 5 -15 19 -33 30 -18 11 -40 33 -48 48
-8 15 -20 32 -27 36 -17 11 -52 82 -52 107 0 28 29 26 62 -5 15 -14 31 -25 36
-25 5 0 15 -7 22 -15 7 -8 32 -25 56 -37 24 -12 44 -25 44 -30 0 -4 8 -8 18
-8 9 0 31 -7 47 -16 17 -9 41 -18 55 -21 13 -2 29 -8 35 -13 5 -4 37 -11 70
-14 33 -3 85 -8 115 -11 30 -3 78 -2 105 2 48 8 50 10 53 42 2 19 -1 37 -7 41
-7 3 -14 23 -16 44 -3 21 -12 44 -20 52 -8 9 -15 24 -15 34 0 10 -7 31 -15 46
-8 16 -15 39 -15 50 0 12 -7 27 -15 34 -8 7 -15 21 -15 30 0 10 -3 20 -7 22
-5 2 -19 26 -33 53 -14 28 -35 60 -47 72 -13 12 -23 25 -23 29 0 12 -59 60
-104 83 l-46 24 -45 -32 c-79 -56 -170 -74 -265 -52 -56 13 -141 -2 -158 -27
-19 -28 -30 -28 -61 2 -22 21 -35 25 -86 24 -189 -2 -214 0 -274 27 -43 20
-63 35 -71 56 -18 42 -39 37 -46 -11z M5580 7305 c-7 -8 -25 -15 -41 -15 -15
0 -30 -4 -33 -8 -3 -5 -62 -7 -133 -6 -128 3 -183 -6 -183 -31 0 -20 49 -103
65 -109 8 -3 15 -12 15 -20 0 -16 53 -60 85 -70 34 -10 120 -98 143 -147 21
-45 22 -109 2 -109 -5 0 -11 -13 -15 -30 -6 -27 -69 -100 -87 -100 -15 0 -56
-49 -62 -75 -14 -54 -7 -55 279 -55 204 0 265 3 273 13 17 21 -7 86 -37 102
-48 26 -121 108 -121 137 0 10 -6 27 -12 38 -10 16 -10 24 0 40 6 11 12 28 12
38 0 27 85 118 127 135 22 8 61 40 90 73 74 83 82 96 83 127 0 40 -28 47 -180
45 -72 0 -134 2 -137 6 -3 3 -19 6 -35 6 -16 0 -31 6 -34 15 -4 8 -16 15 -29
15 -12 0 -28 -7 -35 -15z M2370 7287 c-31 -19 -53 -22 -197 -25 -111 -3 -163
-8 -166 -16 -13 -33 10 -87 61 -140 29 -31 58 -56 63 -56 21 0 106 -73 142
-123 40 -55 46 -91 27 -157 -12 -40 -58 -95 -89 -105 -12 -3 -21 -10 -21 -15
0 -5 -8 -11 -17 -14 -19 -6 -43 -49 -43 -77 0 -50 -7 -49 285 -49 296 0 285
-2 285 54 0 28 -46 76 -129 136 -4 3 -17 18 -29 34 -18 23 -22 42 -22 99 l0
70 54 54 c30 29 59 53 64 53 5 0 17 9 27 20 10 11 24 20 32 20 7 0 13 3 13 8
0 4 14 16 30 27 16 11 30 25 30 31 0 6 11 21 25 34 18 17 25 34 25 62 0 22 -5
40 -12 43 -7 2 -84 5 -170 7 -144 3 -159 5 -187 26 -36 26 -37 26 -81 -1z
M3978 5585 c-10 -13 -18 -30 -18 -37 0 -7 -7 -26 -15 -41 -8 -15 -17 -51 -20
-79 -3 -29 -11 -58 -17 -65 -5 -7 -10 -29 -10 -50 0 -21 -6 -47 -13 -59 -7
-12 -16 -65 -19 -123 -4 -57 -9 -107 -11 -112 -3 -4 -8 -32 -11 -61 -3 -29 -7
-59 -10 -67 -3 -8 -5 -473 -5 -1033 1 -992 0 -1018 -19 -1028 -26 -14 -70 -12
-100 3 -38 20 -114 29 -128 15 -7 -7 -12 -40 -12 -73 0 -51 4 -65 23 -83 13
-12 35 -22 48 -22 33 0 152 -40 161 -54 4 -6 8 -25 8 -42 0 -17 6 -47 14 -65
10 -24 15 -94 18 -232 l5 -199 -25 -16 c-23 -15 -24 -19 -17 -86 7 -78 30
-134 60 -150 11 -6 22 -14 25 -18 3 -3 18 -10 33 -13 15 -4 30 -11 33 -16 7
-12 71 -11 79 1 3 6 17 10 29 10 28 0 94 62 118 111 18 37 31 129 20 146 -4 6
-16 13 -28 17 -20 6 -21 13 -22 203 l-2 197 25 26 c16 17 27 42 31 75 4 28 11
55 15 61 5 6 44 19 86 29 43 10 90 26 104 36 25 17 27 24 24 79 -3 78 -15 92
-69 83 -22 -3 -46 -12 -53 -18 -7 -8 -37 -12 -75 -11 l-63 1 -5 1075 c-3 591
-8 1080 -12 1085 -3 6 -9 62 -13 125 -3 63 -10 126 -15 140 -5 14 -11 46 -15
72 -3 26 -10 50 -15 53 -12 7 -30 -28 -30 -59 0 -14 -4 -28 -10 -31 -5 -3 -9
-20 -9 -38 0 -18 -5 -57 -12 -87 -10 -41 -14 -337 -18 -1199 l-6 -1144 -29
-10 c-59 -20 -56 -74 -56 1108 1 723 4 1093 11 1120 6 22 15 74 20 115 5 41
13 84 19 95 5 11 11 37 14 59 2 21 8 41 13 45 6 3 12 26 15 51 3 25 16 69 30
97 l24 52 -23 30 c-29 37 -52 39 -75 6z M18745 8544 c-66 -7 -212 -18 -325
-24 -268 -14 -332 -20 -347 -32 -16 -13 -17 -104 -3 -113 6 -4 48 -11 93 -15
138 -15 204 -27 231 -45 14 -10 26 -21 26 -26 0 -5 7 -9 15 -9 9 0 15 -9 15
-23 0 -13 4 -27 9 -32 33 -35 35 -99 40 -2130 l6 -2010 54 -8 c30 -4 59 -11
65 -16 6 -5 60 -12 119 -15 60 -3 113 -9 118 -12 27 -16 477 -24 629 -10 189
18 277 29 295 39 11 5 36 12 55 14 19 2 39 8 45 12 5 5 26 12 45 16 19 4 42
13 50 19 8 7 25 13 38 14 12 0 29 8 38 16 8 9 26 16 40 16 13 0 24 3 24 8 0 4
24 18 53 31 28 14 66 34 82 46 17 12 50 33 75 48 25 14 62 42 82 61 20 20 40
36 45 36 11 0 133 127 133 139 0 6 6 14 13 18 16 11 77 89 77 100 0 5 13 24
30 43 16 19 29 40 30 47 0 19 33 83 42 83 4 0 8 10 8 23 0 13 7 32 15 43 8 10
15 26 15 34 0 8 7 28 15 43 8 15 17 46 19 68 3 23 9 46 15 52 32 41 34 582 1
622 -4 5 -11 30 -15 55 -4 25 -11 50 -16 55 -4 6 -10 23 -13 39 -3 15 -9 33
-14 39 -5 7 -13 27 -17 44 -3 18 -11 35 -16 38 -5 3 -25 40 -45 81 -19 40 -39
74 -42 74 -4 0 -16 16 -27 36 -29 54 -201 226 -270 270 -16 10 -33 23 -37 29
-4 5 -11 10 -15 10 -4 0 -26 11 -48 24 -66 40 -109 61 -133 66 -13 2 -29 8
-35 14 -7 5 -30 12 -51 15 -22 4 -46 12 -54 19 -22 18 -480 17 -491 -1 -4 -8
-28 -16 -52 -18 -24 -2 -45 -8 -47 -14 -2 -5 -20 -12 -40 -16 -20 -4 -53 -17
-72 -28 -19 -12 -46 -27 -60 -34 -28 -14 -45 -25 -110 -66 -44 -29 -82 -60
-122 -103 -12 -13 -30 -23 -40 -23 -17 0 -18 43 -18 1108 0 848 -3 1111 -12
1120 -14 14 -54 14 -213 -4z m978 -2118 c30 -8 79 -25 108 -39 30 -14 64 -28
77 -32 12 -3 22 -10 22 -15 0 -5 16 -16 35 -26 36 -17 165 -135 165 -152 0 -5
10 -20 23 -34 22 -25 41 -57 80 -133 11 -22 26 -47 32 -55 6 -8 12 -26 13 -40
1 -14 6 -26 12 -28 5 -2 10 -16 10 -31 0 -14 7 -37 16 -49 9 -13 18 -51 21
-85 3 -34 10 -67 15 -74 13 -16 29 -262 23 -343 -3 -36 -7 -102 -9 -148 -2
-46 -9 -88 -14 -95 -5 -7 -12 -41 -14 -77 -5 -65 -36 -170 -50 -170 -5 0 -8
-11 -8 -24 0 -31 -86 -198 -139 -270 -48 -65 -134 -149 -170 -167 -14 -7 -34
-20 -44 -28 -39 -32 -133 -81 -156 -81 -11 0 -21 -5 -23 -11 -2 -6 -19 -13
-37 -15 -19 -2 -39 -8 -46 -14 -28 -23 -340 -48 -394 -31 -20 6 -55 12 -79 14
-23 3 -51 12 -61 21 -10 9 -20 14 -23 11 -9 -9 -78 77 -84 105 -3 14 -9 32
-13 40 -8 15 -27 99 -31 135 -2 11 -4 377 -6 813 l-4 793 30 30 c16 17 30 34
30 37 0 4 21 26 45 50 25 24 45 48 45 53 0 5 5 9 11 9 6 0 32 18 58 40 27 23
61 43 77 46 16 3 31 9 34 13 9 15 74 44 125 56 70 18 233 18 298 1z M16001
8539 c-13 -5 -112 -14 -220 -19 -108 -5 -236 -14 -286 -20 -49 -5 -119 -12
-155 -15 -36 -2 -81 -8 -100 -12 -35 -9 -35 -9 -38 -71 -3 -62 -3 -62 25 -62
82 -1 189 -12 197 -21 6 -5 24 -9 42 -9 17 0 37 -6 43 -14 7 -8 22 -17 35 -20
24 -6 56 -59 56 -93 0 -10 6 -25 13 -31 9 -10 13 -381 15 -1773 3 -1963 1
-2010 -61 -2093 -15 -19 -27 -39 -27 -45 0 -6 -8 -11 -17 -11 -10 0 -27 -7
-37 -15 -11 -8 -34 -15 -51 -15 -17 0 -36 -5 -43 -12 -6 -6 -46 -13 -89 -15
-42 -2 -78 -5 -79 -6 -11 -11 -8 -90 3 -107 14 -20 25 -20 637 -20 470 0 625
3 634 12 7 7 12 35 12 64 l0 52 -87 7 c-49 4 -92 10 -98 15 -5 4 -26 10 -45
14 -48 8 -100 53 -135 117 l-30 54 -3 444 c-2 271 1 448 7 454 6 6 150 -132
390 -374 209 -211 381 -387 381 -391 0 -5 4 -8 8 -8 7 0 126 -118 357 -353
l105 -107 390 0 c276 0 391 3 396 11 13 22 15 119 2 120 -49 2 -103 11 -112
18 -6 5 -29 12 -51 16 -22 4 -43 11 -46 17 -3 5 -19 11 -35 13 -15 1 -30 8
-32 14 -2 6 -12 11 -23 11 -11 0 -22 7 -25 15 -3 8 -15 17 -27 21 -24 8 -25 8
-102 75 -33 29 -71 66 -85 83 -14 16 -36 39 -49 50 -12 12 -57 56 -100 100
-290 298 -351 363 -351 371 0 3 -56 61 -125 130 -69 69 -125 130 -125 135 0 6
-4 10 -8 10 -5 0 -58 50 -118 112 -60 62 -124 127 -141 144 -18 18 -33 37 -33
42 0 5 16 20 35 33 19 13 35 28 35 32 0 4 12 19 28 33 15 13 56 53 92 87 36
35 121 114 189 177 69 63 144 134 167 158 24 23 47 42 51 42 4 0 22 15 38 33
17 17 47 44 67 59 20 15 42 33 50 40 7 7 24 19 38 26 14 6 49 29 78 50 29 21
62 39 74 39 12 1 24 7 27 12 4 6 38 22 76 37 59 23 89 28 195 31 160 5 172 11
168 77 l-3 51 -660 0 -660 0 -1 -45 c-2 -67 8 -80 65 -80 108 0 182 -42 215
-124 25 -60 22 -78 -25 -166 -5 -8 -16 -31 -25 -50 -21 -43 -159 -179 -467
-460 -27 -25 -88 -82 -136 -126 -133 -125 -143 -134 -152 -128 -5 3 -9 689 -9
1574 0 863 -3 1571 -7 1573 -20 11 -80 15 -102 6z M27158 8540 c-9 -6 -108
-15 -220 -20 -112 -6 -239 -14 -283 -19 -44 -6 -119 -12 -168 -15 -81 -5 -125
-17 -128 -34 -1 -4 -3 -31 -4 -59 l-3 -53 31 0 c87 -2 193 -12 202 -21 5 -5
23 -9 40 -9 19 0 39 -8 50 -20 10 -11 24 -20 32 -20 7 0 17 -8 20 -17 4 -10
12 -24 19 -31 33 -33 34 -109 31 -1942 -2 -1004 -6 -1843 -9 -1865 -6 -45 -63
-174 -78 -176 -6 -1 -14 -2 -18 -3 -5 0 -16 -9 -26 -18 -10 -10 -29 -18 -42
-18 -14 0 -34 -4 -44 -10 -10 -5 -53 -12 -96 -16 -44 -3 -82 -8 -86 -11 -13
-7 -9 -98 4 -111 9 -9 165 -12 640 -12 610 0 628 1 638 19 5 11 10 40 10 65
l0 46 -37 0 c-64 1 -147 12 -158 20 -5 4 -26 11 -45 15 -19 4 -38 12 -41 17
-3 5 -13 10 -23 12 -20 3 -66 64 -66 87 0 10 -4 20 -9 23 -19 12 -23 99 -23
509 -1 306 2 422 11 425 6 2 14 -3 17 -12 3 -9 12 -16 20 -16 8 0 14 -3 14 -8
0 -4 217 -226 483 -493 265 -268 503 -508 528 -535 25 -27 66 -67 90 -89 25
-23 51 -50 57 -60 10 -19 25 -20 416 -23 l406 -3 0 60 c0 64 -9 77 -47 73 -12
-2 -37 4 -55 12 -18 8 -51 17 -73 20 -21 2 -41 9 -43 15 -2 6 -10 11 -18 11
-22 0 -104 39 -104 49 0 5 -19 19 -42 31 -24 12 -82 62 -130 111 -47 49 -91
89 -97 89 -6 0 -11 5 -11 11 0 6 -51 61 -112 123 -62 61 -156 158 -208 215
-52 56 -110 118 -127 137 -18 19 -33 38 -34 42 0 4 -19 23 -43 42 -23 19 -57
53 -75 75 -18 22 -109 117 -202 211 -93 93 -169 178 -169 187 0 9 6 20 14 24
8 4 43 35 78 68 35 33 105 97 154 142 49 45 148 139 219 208 72 69 135 125
141 125 6 0 28 20 50 45 21 25 42 45 47 45 7 0 20 9 52 38 7 6 18 12 24 12 6
0 18 8 28 18 37 36 93 72 123 78 16 4 30 10 30 14 0 8 112 49 160 58 14 3 77
7 140 9 63 2 119 8 124 13 5 5 11 34 12 65 l3 55 -667 -2 -667 -3 -3 -51 c-3
-59 10 -70 93 -77 94 -8 127 -23 192 -86 11 -11 14 -35 11 -100 -3 -76 -6 -90
-30 -122 -16 -20 -28 -40 -28 -45 -1 -20 -260 -269 -316 -304 -13 -8 -24 -20
-24 -27 0 -7 -4 -13 -10 -13 -13 0 -50 -37 -50 -50 0 -5 -4 -10 -8 -10 -5 0
-31 -22 -59 -50 -28 -27 -55 -50 -60 -50 -6 0 -14 -8 -19 -19 -12 -25 -183
-173 -196 -169 -6 2 -10 563 -11 1565 -2 1158 -5 1565 -13 1573 -16 16 -75 22
-96 10z M7898 8524 c-5 -4 -8 -28 -8 -53 0 -52 23 -76 64 -65 33 8 105 -13
143 -42 17 -13 35 -24 38 -24 10 0 44 -44 45 -57 0 -7 6 -16 13 -20 20 -12 57
-78 57 -101 0 -11 7 -33 15 -48 8 -16 15 -38 15 -50 0 -11 5 -25 11 -31 6 -6
13 -56 16 -110 2 -54 9 -111 16 -128 17 -43 17 -2966 0 -3010 -6 -16 -14 -75
-18 -130 -3 -54 -10 -104 -15 -109 -6 -6 -10 -17 -10 -26 0 -8 -7 -28 -15 -44
-8 -15 -15 -39 -15 -51 0 -13 -6 -30 -13 -37 -8 -7 -22 -29 -31 -48 -9 -19
-24 -44 -34 -55 -22 -26 -102 -89 -102 -80 0 4 -16 -3 -35 -15 -19 -11 -40
-20 -47 -19 -7 1 -32 1 -55 0 l-43 -1 0 -54 c0 -35 5 -58 15 -66 22 -18 2085
-11 2107 8 8 6 44 15 79 18 35 4 73 13 84 20 11 8 33 14 50 14 16 0 39 7 49
15 11 8 30 15 43 15 13 0 23 5 23 10 0 6 11 10 23 10 13 0 34 9 47 20 13 11
29 20 37 20 7 0 13 4 13 9 0 5 10 13 22 17 34 10 228 192 228 213 0 6 16 29
36 51 20 22 33 40 29 40 -4 0 0 11 8 24 32 49 77 137 77 151 0 8 9 32 20 52
11 21 20 45 20 53 0 9 4 20 10 26 5 5 12 35 15 67 3 32 10 65 15 75 26 44 26
439 0 484 -5 9 -12 40 -16 69 -4 30 -13 60 -21 67 -7 7 -13 21 -13 30 0 9 -7
26 -15 36 -8 11 -15 27 -15 37 0 9 -7 22 -15 29 -8 7 -15 19 -15 27 0 8 -11
29 -25 47 -14 18 -25 36 -25 41 0 8 -49 68 -95 116 -14 14 -25 31 -25 37 0 5
-15 22 -32 37 -18 14 -42 34 -53 43 -11 9 -49 38 -85 64 -36 26 -74 54 -85 63
-10 8 -25 15 -32 15 -7 0 -13 5 -13 10 0 6 -6 10 -14 10 -7 0 -19 7 -26 15 -7
8 -21 15 -32 15 -20 0 -99 37 -108 51 -3 4 -18 10 -34 13 -15 3 -33 9 -40 15
-6 5 -33 12 -60 16 -56 6 -66 11 -66 30 0 14 82 46 135 52 16 2 32 8 33 13 2
6 9 10 16 10 8 0 25 9 40 21 14 11 26 17 26 14 0 -4 16 7 35 24 20 17 42 31
51 31 8 0 17 7 20 15 3 8 14 17 25 20 10 4 19 13 19 21 0 8 6 14 13 14 7 0 32
18 55 40 22 22 46 40 52 40 5 0 10 7 10 15 0 7 6 18 13 22 16 11 97 120 97
131 0 5 7 15 15 22 8 7 15 21 15 31 0 9 7 24 15 33 8 8 15 21 15 28 0 7 7 23
15 35 8 12 17 39 20 60 2 21 9 49 14 63 33 84 49 373 27 464 -9 34 -16 76 -16
93 0 17 -4 33 -10 35 -5 2 -12 22 -15 46 -3 24 -12 53 -20 65 -8 12 -15 28
-15 35 0 7 -7 20 -16 29 -8 9 -13 21 -10 28 2 7 -4 21 -15 31 -10 9 -19 23
-19 31 0 8 -11 26 -25 41 -14 15 -25 32 -25 38 0 14 -149 166 -187 191 -15 10
-41 29 -56 42 -15 14 -35 26 -43 27 -9 1 -23 8 -32 16 -27 21 -62 39 -85 44
-11 2 -23 8 -26 12 -3 5 -22 12 -41 14 -41 6 -272 64 -315 80 -35 13 -1875 25
-1887 12z m1535 -182 c80 -5 142 -13 149 -20 7 -7 26 -12 42 -12 17 0 44 -9
60 -19 17 -11 33 -18 38 -15 4 3 20 -2 35 -10 16 -8 35 -17 43 -21 29 -12 63
-33 70 -45 4 -6 15 -12 24 -14 26 -4 135 -114 151 -152 7 -18 23 -42 35 -54
11 -11 23 -37 26 -56 2 -20 11 -42 19 -50 8 -9 15 -28 15 -43 0 -15 5 -32 10
-37 6 -6 15 -60 20 -120 5 -60 12 -124 16 -143 4 -18 2 -56 -5 -85 -6 -28 -13
-84 -15 -125 -2 -40 -9 -78 -15 -84 -6 -6 -11 -26 -11 -43 0 -18 -6 -39 -13
-46 -8 -7 -16 -31 -20 -52 -3 -21 -13 -46 -22 -56 -8 -9 -15 -24 -15 -32 0 -9
-7 -21 -15 -28 -8 -7 -13 -15 -10 -19 2 -4 -6 -22 -18 -41 -12 -18 -27 -42
-33 -52 -23 -38 -107 -131 -177 -196 -95 -87 -280 -175 -423 -201 -85 -15
-506 -15 -522 1 -18 18 -17 1859 0 1876 14 14 308 11 561 -6z m-180 -2091 c14
-5 61 -11 104 -12 43 -1 92 -7 108 -15 17 -7 52 -15 80 -18 27 -2 51 -9 53
-15 2 -6 14 -11 26 -11 12 0 31 -7 42 -15 10 -8 26 -15 35 -15 9 0 22 -6 28
-14 6 -7 24 -16 39 -19 15 -3 47 -20 71 -39 24 -18 54 -39 67 -46 26 -15 175
-162 220 -218 17 -22 34 -49 38 -62 4 -12 11 -22 16 -22 4 0 11 -12 15 -27 3
-15 10 -30 13 -33 7 -5 39 -69 66 -132 9 -20 16 -45 16 -56 0 -11 4 -22 10
-24 5 -1 12 -28 16 -58 3 -30 13 -76 21 -103 12 -37 14 -82 11 -211 -3 -97 -9
-170 -15 -178 -6 -7 -13 -37 -16 -65 -5 -52 -34 -143 -48 -153 -4 -3 -10 -17
-12 -31 -6 -33 -23 -62 -64 -116 -18 -23 -33 -46 -33 -52 0 -7 -29 -40 -65
-75 -67 -66 -223 -156 -269 -156 -12 0 -27 -5 -33 -11 -7 -7 -54 -14 -110 -16
-54 -2 -120 -8 -148 -14 -51 -11 -181 -8 -340 9 -67 7 -102 16 -138 36 -54 30
-106 83 -107 106 0 8 -9 29 -20 45 -11 17 -20 44 -20 62 0 17 -5 33 -12 35
-23 8 -30 196 -34 958 -4 689 -3 766 11 776 20 15 341 19 378 5z M11806 8193
c-48 -7 -206 -133 -206 -163 0 -9 -11 -27 -24 -39 -13 -13 -27 -39 -31 -59 -4
-21 -12 -43 -18 -51 -17 -20 -15 -270 2 -280 7 -5 15 -23 17 -40 2 -18 17 -48
33 -69 16 -20 31 -46 33 -56 1 -10 12 -24 22 -30 11 -6 30 -21 42 -33 11 -13
26 -23 31 -23 6 0 16 -7 23 -15 7 -8 21 -15 31 -15 9 0 24 -6 32 -14 39 -39
285 -39 324 0 8 7 22 14 31 14 10 0 40 19 67 43 28 24 60 52 73 62 26 23 29
52 5 59 -10 2 -36 3 -58 1 -22 -2 -44 0 -50 5 -5 4 -28 10 -50 13 -101 14
-199 99 -274 237 l-36 65 0 135 c0 129 1 137 28 184 42 76 39 81 -47 69z
M13885 6649 c-16 -5 -104 -12 -195 -15 -91 -3 -181 -10 -200 -15 -19 -5 -91
-12 -160 -15 -69 -3 -145 -10 -170 -15 -25 -5 -72 -12 -104 -14 -33 -2 -63
-10 -67 -16 -6 -11 -2 -77 6 -106 3 -8 43 -13 127 -16 177 -5 227 -24 289
-110 23 -32 29 -50 29 -93 0 -29 5 -56 10 -59 14 -9 14 -1654 0 -1690 -6 -15
-11 -52 -11 -83 -1 -34 -8 -67 -17 -82 -9 -14 -23 -38 -32 -54 -29 -54 -128
-93 -239 -95 -46 -1 -88 -4 -92 -7 -14 -9 -10 -100 5 -113 9 -8 187 -10 647
-9 l634 3 5 53 c3 29 3 57 0 61 -3 5 -49 11 -102 13 -54 3 -104 10 -112 17 -7
6 -25 14 -37 16 -13 3 -25 9 -27 15 -2 5 -8 10 -13 10 -29 0 -79 84 -79 133 0
13 -6 29 -12 35 -10 10 -14 180 -16 767 l-2 754 52 56 c29 30 57 55 61 55 5 0
21 12 37 28 46 45 69 62 85 62 8 0 15 5 15 10 0 6 6 10 13 10 8 0 24 9 37 20
13 11 31 20 41 20 9 0 19 6 22 13 3 9 41 12 148 12 117 -1 150 -4 174 -18 17
-9 38 -17 48 -17 9 0 17 -4 17 -10 0 -5 11 -10 24 -10 13 0 29 -7 36 -15 7 -8
19 -15 27 -15 19 0 70 -28 101 -55 13 -11 25 -19 28 -18 2 1 25 -7 51 -18 25
-11 52 -18 58 -15 14 5 45 67 45 89 0 9 5 19 10 22 6 3 10 14 10 23 0 9 7 30
15 46 8 15 15 36 15 46 0 10 7 23 15 30 8 7 15 24 15 37 0 14 6 37 13 51 8 15
21 42 30 60 25 49 21 75 -13 100 -16 12 -33 22 -38 22 -5 0 -15 6 -21 14 -7 8
-27 17 -46 20 -18 4 -35 11 -37 16 -2 6 -18 12 -37 14 -18 2 -37 10 -42 17 -6
11 -44 14 -168 14 -137 0 -162 -2 -178 -17 -11 -10 -27 -18 -36 -18 -9 0 -17
-4 -17 -9 0 -5 -9 -13 -21 -16 -25 -8 -113 -66 -117 -77 -2 -4 -10 -8 -18 -8
-8 0 -14 -4 -14 -10 0 -5 -19 -22 -42 -36 -24 -14 -54 -37 -68 -50 -40 -38
-139 -114 -148 -114 -5 0 -25 -17 -44 -37 -72 -76 -125 -123 -131 -116 -4 3
-7 122 -7 264 0 225 -2 258 -16 263 -9 3 -16 6 -17 5 -1 0 -15 -5 -32 -10z
M12050 6629 c-52 -4 -117 -11 -144 -17 -26 -5 -82 -10 -124 -11 -41 -1 -84 -7
-94 -12 -11 -6 -86 -13 -166 -16 -178 -7 -192 -13 -192 -83 0 -26 6 -52 13
-58 6 -5 64 -12 127 -15 117 -4 163 -17 223 -59 26 -19 67 -92 67 -120 0 -8 4
-18 10 -24 14 -14 15 -1803 1 -1817 -6 -6 -11 -22 -12 -36 -1 -44 -41 -111
-79 -131 -92 -48 -106 -52 -225 -57 -66 -3 -122 -9 -125 -14 -3 -4 -3 -32 0
-61 l5 -53 660 0 660 0 3 63 3 62 -33 0 c-64 1 -143 12 -153 21 -5 5 -22 9
-37 9 -36 0 -92 30 -118 63 -35 44 -48 89 -49 172 -1 44 -6 98 -11 120 -6 23
-10 460 -10 1051 0 852 -2 1013 -14 1023 -8 6 -31 10 -52 9 -22 -2 -82 -6
-134 -9z M22280 6632 c-19 -2 -39 -7 -45 -12 -5 -4 -28 -11 -49 -16 -22 -4
-51 -13 -65 -20 -14 -8 -34 -14 -43 -14 -10 0 -51 -20 -91 -45 -41 -25 -80
-45 -86 -45 -6 0 -11 -3 -11 -8 0 -4 -20 -18 -45 -31 -25 -13 -45 -28 -45 -32
0 -5 -5 -9 -11 -9 -12 0 -229 -214 -229 -225 0 -6 -48 -74 -105 -150 -8 -10
-15 -26 -15 -35 0 -8 -14 -35 -30 -60 -16 -25 -30 -55 -30 -67 0 -12 -4 -24
-9 -27 -5 -3 -12 -21 -15 -40 -4 -19 -11 -36 -15 -38 -5 -2 -12 -25 -15 -52
-3 -27 -9 -52 -15 -55 -5 -4 -13 -40 -16 -80 -3 -41 -11 -83 -16 -93 -13 -24
-13 -366 0 -381 5 -7 12 -46 16 -87 4 -41 11 -80 16 -86 5 -6 12 -32 15 -58 4
-25 10 -46 15 -46 4 0 11 -15 14 -32 4 -18 13 -40 19 -48 7 -8 13 -25 14 -37
0 -12 10 -33 22 -45 11 -12 24 -34 27 -48 3 -14 19 -41 35 -60 15 -19 28 -38
28 -43 0 -19 268 -287 287 -287 7 0 13 -4 13 -10 0 -5 7 -10 15 -10 7 0 18 -6
22 -13 4 -6 43 -30 86 -51 42 -21 77 -43 77 -47 0 -5 11 -9 24 -9 13 0 29 -7
36 -15 7 -8 24 -15 38 -15 23 0 155 -32 192 -47 18 -7 14 -7 115 -16 151 -15
210 -16 305 -5 52 5 106 10 120 10 14 0 30 3 35 7 18 14 164 53 174 47 5 -4
16 1 24 9 9 8 26 20 39 25 30 14 56 30 96 58 18 13 39 25 47 26 18 3 208 184
224 213 6 12 19 24 28 28 10 3 33 29 51 58 29 47 32 60 32 128 0 42 -3 79 -7
83 -7 7 -183 -163 -183 -177 0 -13 -154 -157 -182 -169 -16 -7 -28 -16 -28
-20 0 -5 -6 -8 -13 -8 -8 0 -22 -9 -31 -19 -18 -20 -135 -81 -155 -81 -6 0
-11 -4 -11 -10 0 -5 -17 -12 -37 -15 -21 -4 -49 -12 -62 -18 -14 -7 -73 -12
-146 -12 -73 0 -132 5 -146 12 -13 6 -41 14 -61 18 -21 3 -38 10 -38 15 0 6
-5 10 -11 10 -24 0 -121 52 -157 85 -22 19 -45 35 -52 35 -14 0 -200 189 -200
203 0 5 -13 25 -30 44 -16 18 -30 40 -30 47 0 7 -9 21 -20 31 -11 10 -20 22
-20 28 0 5 -13 29 -30 54 -16 24 -30 54 -30 67 0 13 -7 29 -15 36 -8 7 -15 20
-15 29 0 9 -5 22 -11 28 -6 6 -13 35 -16 63 -2 29 -10 62 -17 74 -8 11 -14 35
-14 53 0 17 -6 42 -12 53 -7 12 -14 72 -16 134 -3 61 -12 153 -20 205 -9 55
-12 97 -6 103 5 5 386 8 887 8 639 0 881 3 891 11 16 13 20 150 5 178 -5 9
-13 46 -16 81 -4 35 -13 73 -21 84 -8 11 -14 30 -14 43 0 12 -4 24 -9 27 -5 3
-12 18 -16 33 -3 15 -10 30 -14 33 -13 10 -41 59 -41 73 0 8 -7 21 -17 28 -9
8 -34 37 -55 64 -73 93 -102 125 -111 125 -5 0 -32 19 -60 43 -58 47 -64 51
-162 106 -38 22 -75 44 -82 50 -7 6 -20 11 -30 11 -10 0 -31 7 -48 16 -16 9
-43 17 -59 20 -15 2 -35 9 -43 16 -11 9 -71 13 -222 13 -113 1 -222 -1 -241
-3z m225 -142 c3 -5 30 -10 59 -10 30 0 60 -6 72 -15 10 -8 30 -15 44 -15 37
0 170 -92 219 -150 22 -27 41 -52 41 -56 0 -4 13 -28 29 -54 16 -25 32 -62 36
-81 4 -19 14 -43 21 -54 8 -11 14 -36 14 -55 0 -20 5 -41 11 -47 12 -12 23
-162 15 -207 l-6 -31 -632 2 c-496 2 -633 5 -640 15 -10 16 0 138 12 153 5 6
11 31 14 55 3 25 10 46 16 48 5 2 10 18 10 35 0 18 13 57 29 88 15 31 31 68
35 83 3 14 11 26 16 26 5 0 17 16 26 36 36 75 166 180 237 191 17 3 40 10 51
17 12 7 44 14 71 15 28 2 57 7 65 12 21 12 127 11 135 -1z M25030 6633 c-25
-2 -60 -11 -78 -19 -18 -8 -38 -13 -45 -11 -7 2 -28 -4 -47 -15 -19 -10 -42
-18 -51 -18 -14 0 -161 -78 -185 -98 -5 -5 -28 -18 -50 -28 -21 -10 -53 -32
-70 -49 -17 -16 -58 -55 -90 -85 -65 -61 -154 -159 -154 -169 0 -4 -12 -22
-28 -41 -15 -19 -36 -52 -47 -72 -11 -21 -23 -38 -27 -38 -5 0 -8 -8 -8 -19 0
-10 -7 -24 -15 -31 -8 -7 -15 -21 -15 -31 0 -9 -7 -24 -15 -33 -8 -8 -15 -21
-15 -28 0 -7 -7 -26 -16 -43 -9 -16 -17 -45 -19 -63 -2 -18 -7 -38 -13 -45 -5
-7 -13 -32 -17 -57 -4 -25 -11 -50 -16 -56 -5 -6 -9 -35 -10 -65 0 -30 -7 -82
-15 -117 -16 -73 -19 -239 -4 -276 5 -14 12 -65 16 -113 3 -49 10 -92 14 -98
4 -5 10 -27 14 -47 4 -20 13 -50 21 -65 8 -15 15 -37 15 -48 0 -18 13 -48 74
-172 11 -24 23 -43 26 -43 3 0 14 -17 25 -37 11 -21 37 -56 58 -78 22 -22 45
-55 53 -72 8 -18 21 -33 28 -33 8 0 25 -12 38 -28 28 -33 140 -122 155 -122 5
0 18 -9 28 -20 10 -11 24 -20 30 -20 7 0 28 -11 47 -23 19 -13 46 -27 61 -31
15 -3 27 -11 27 -16 0 -6 12 -10 26 -10 26 0 147 -32 189 -49 11 -5 29 -9 40
-9 11 -1 58 -5 105 -10 99 -10 185 -9 290 3 41 5 79 8 84 6 6 -1 19 2 30 8 33
15 162 51 186 51 12 0 28 7 36 15 9 8 26 15 40 15 13 0 24 4 24 9 0 4 35 26
77 47 42 22 88 49 101 62 14 12 29 22 34 22 17 0 258 236 258 253 0 5 12 24
26 43 20 26 24 37 15 47 -6 8 -8 17 -5 20 14 14 11 87 -3 99 -13 10 -35 -9
-137 -113 -66 -69 -141 -141 -166 -159 -25 -19 -56 -45 -70 -58 -14 -13 -37
-26 -52 -29 -15 -3 -29 -11 -32 -19 -3 -8 -14 -14 -24 -14 -11 0 -25 -7 -32
-15 -7 -8 -23 -15 -35 -15 -12 0 -28 -6 -34 -13 -6 -8 -27 -14 -46 -15 -19 -1
-45 -8 -57 -16 -13 -8 -52 -14 -91 -15 -37 -1 -79 -7 -92 -13 -19 -8 -35 -8
-62 0 -21 6 -63 14 -93 16 -30 3 -56 9 -58 15 -2 6 -17 11 -33 11 -16 0 -44 8
-62 18 -36 20 -89 54 -97 62 -3 3 -23 17 -45 31 -51 33 -185 168 -185 186 0 7
-7 16 -15 19 -13 5 -78 105 -113 174 -7 14 -24 45 -37 70 -13 25 -24 57 -24
72 -1 15 -5 29 -10 32 -13 8 -42 104 -48 156 -3 25 -9 50 -14 56 -9 11 -23
105 -38 264 -9 94 -4 231 9 270 5 14 11 52 14 84 3 33 10 64 16 70 5 5 10 28
10 49 0 37 7 58 50 152 45 98 55 120 61 125 3 3 14 21 23 41 22 47 164 191
210 213 20 9 36 20 36 25 0 12 85 51 113 51 14 0 27 5 29 11 2 5 24 13 48 16
25 3 51 11 59 17 19 15 208 14 246 -1 17 -7 47 -14 68 -16 20 -3 43 -9 50 -15
6 -6 26 -12 42 -15 38 -7 127 -50 144 -71 7 -9 20 -16 27 -16 18 0 191 -174
199 -200 4 -12 17 -32 31 -47 13 -14 24 -34 24 -44 0 -10 7 -25 16 -33 8 -9
17 -26 19 -38 3 -13 11 -36 19 -53 32 -67 44 -101 44 -128 -1 -37 27 -56 80
-57 l42 0 0 435 0 435 -63 0 c-62 0 -63 0 -101 -46 -21 -25 -41 -43 -44 -40
-3 3 -14 -2 -25 -11 -21 -20 -102 -22 -120 -4 -6 6 -20 11 -31 11 -12 0 -33 6
-48 14 -14 8 -45 17 -69 20 -23 3 -47 10 -53 15 -7 6 -30 11 -51 12 -22 1 -51
9 -64 17 -19 11 -69 15 -235 17 -116 1 -231 0 -256 -2z M14803 2613 c-29 -2
-53 -8 -53 -14 0 -5 -6 -9 -13 -9 -23 0 -130 -117 -133 -146 -2 -15 -8 -30
-14 -34 -14 -9 -14 -192 0 -218 5 -9 17 -35 26 -56 20 -43 102 -138 114 -131
8 5 62 -33 68 -47 2 -4 20 -15 40 -25 41 -19 162 -112 162 -125 0 -4 7 -8 15
-8 8 0 15 -7 15 -15 0 -8 5 -15 10 -15 6 0 10 -8 10 -17 0 -10 7 -31 15 -47
17 -33 20 -72 5 -81 -5 -3 -10 -18 -10 -32 0 -31 -59 -93 -88 -93 -12 0 -24
-4 -27 -10 -8 -12 -99 -13 -123 -1 -9 5 -34 17 -55 27 -46 22 -97 77 -97 103
0 10 -7 32 -15 47 -8 16 -15 44 -15 62 0 36 -13 41 -48 16 -21 -15 -22 -21
-22 -175 l0 -159 29 0 c16 0 34 7 41 15 16 20 68 19 105 -2 39 -21 286 -26
292 -5 3 6 11 12 18 12 15 0 97 80 131 126 11 16 26 61 33 100 17 90 1 203
-35 251 -13 17 -24 35 -24 38 0 8 -59 65 -67 65 -3 0 -29 20 -57 45 -29 25
-59 45 -67 45 -8 0 -25 12 -38 26 -13 14 -38 31 -55 39 -48 21 -126 99 -136
136 -6 19 -10 60 -10 92 0 49 4 61 28 86 72 74 183 81 250 15 7 -7 21 -19 30
-26 21 -15 52 -78 52 -105 0 -19 34 -63 49 -63 4 0 16 9 25 19 15 16 17 37 15
133 -1 62 -6 123 -11 136 -9 26 -52 31 -62 7 -7 -19 -35 -19 -61 -1 -22 15
-158 25 -242 19z M19446 2613 c-38 -2 -78 -10 -90 -18 -11 -8 -31 -15 -43 -15
-13 0 -23 -4 -23 -9 0 -5 -10 -13 -22 -17 -12 -3 -33 -17 -47 -30 -14 -13 -34
-27 -43 -30 -10 -3 -18 -10 -18 -15 0 -5 -4 -9 -10 -9 -14 0 -45 -33 -73 -77
-13 -21 -32 -44 -41 -52 -9 -7 -16 -20 -16 -27 0 -8 -9 -31 -20 -51 -11 -21
-20 -45 -20 -53 0 -9 -5 -21 -12 -28 -19 -19 -13 -317 8 -367 29 -71 47 -110
56 -125 5 -8 16 -28 26 -45 18 -32 129 -145 143 -145 4 0 14 -6 21 -13 17 -17
98 -59 98 -51 0 4 12 -2 28 -12 24 -17 48 -19 195 -19 117 0 170 4 175 12 4 6
20 15 35 18 15 4 27 11 27 15 0 4 12 11 27 15 64 16 199 150 250 250 86 166
98 396 27 527 -8 14 -14 34 -14 43 0 22 -54 98 -106 149 -62 61 -101 96 -108
96 -4 0 -24 11 -46 25 -22 14 -46 25 -54 25 -8 0 -21 6 -28 13 -15 15 -168 26
-282 20z m202 -90 c28 -8 52 -19 52 -24 0 -5 6 -9 13 -9 16 0 117 -94 117
-109 0 -7 9 -24 20 -39 11 -15 25 -54 31 -87 6 -33 16 -69 22 -80 7 -11 13
-77 15 -152 3 -106 1 -138 -12 -164 -9 -18 -16 -47 -16 -65 0 -20 -18 -67 -42
-115 -44 -84 -87 -128 -158 -160 -19 -9 -48 -22 -63 -30 -36 -17 -162 -18
-179 -1 -7 7 -22 12 -34 12 -12 0 -27 7 -34 15 -7 8 -18 15 -25 15 -21 0 -109
104 -143 171 -21 40 -36 84 -39 119 -3 30 -9 60 -13 65 -15 19 -22 169 -10
220 6 28 15 75 20 105 10 67 21 98 49 129 12 13 21 30 21 36 0 19 84 100 122
120 108 55 170 61 286 28z M23440 2613 c-36 -2 -78 -10 -95 -18 -16 -7 -37
-16 -45 -20 -31 -12 -166 -101 -190 -125 -30 -30 -100 -128 -100 -141 0 -6 -7
-23 -14 -37 -44 -80 -48 -99 -49 -250 -1 -124 2 -158 18 -208 11 -32 26 -65
33 -72 6 -7 12 -20 12 -29 0 -8 9 -27 21 -41 11 -15 36 -48 55 -74 19 -27 41
-48 49 -48 7 0 15 -3 17 -8 7 -17 84 -72 100 -72 9 0 21 -7 26 -16 5 -8 21
-17 36 -18 16 -2 32 -10 37 -17 6 -11 45 -14 177 -14 147 0 171 2 186 18 10 9
28 17 42 17 13 0 24 4 24 10 0 5 11 13 26 16 25 6 57 29 99 72 12 12 26 22 31
23 11 0 85 102 112 155 45 86 72 197 72 294 0 78 -5 108 -32 189 -48 144 -78
187 -222 317 -16 14 -42 31 -58 36 -15 6 -28 14 -28 19 0 5 -9 9 -19 9 -11 0
-26 6 -33 13 -14 15 -169 25 -288 20z m175 -83 c3 -5 17 -10 29 -10 13 0 29
-7 36 -15 7 -8 19 -15 28 -15 18 0 119 -106 128 -135 3 -11 17 -44 31 -74 36
-80 44 -141 40 -307 -4 -139 -6 -155 -37 -236 -27 -73 -42 -97 -92 -148 -33
-33 -64 -60 -70 -60 -5 0 -16 -7 -24 -15 -9 -8 -28 -15 -43 -15 -15 0 -33 -6
-39 -12 -8 -8 -39 -13 -77 -13 -38 0 -69 5 -76 13 -7 6 -25 12 -39 12 -15 0
-35 9 -45 20 -10 11 -24 20 -32 20 -7 0 -13 4 -13 8 0 4 -13 16 -30 25 -17 10
-30 27 -30 37 0 10 -6 23 -14 27 -22 13 -56 76 -56 104 0 14 -5 30 -12 37 -6
6 -15 30 -19 54 -4 24 -13 63 -19 88 -14 53 -8 216 9 233 6 6 11 28 11 48 0
21 6 44 14 52 8 8 18 31 22 51 3 21 17 50 30 66 13 15 24 32 24 38 0 5 20 26
45 46 25 21 45 34 45 31 0 -4 15 3 34 14 18 12 43 21 54 21 11 0 24 5 27 10 3
6 39 10 80 10 41 0 77 -4 80 -10z M27420 2612 c-41 -1 -79 -7 -86 -13 -7 -5
-22 -12 -35 -14 -12 -3 -26 -9 -29 -15 -4 -6 -14 -12 -22 -14 -8 -1 -33 -16
-55 -34 -22 -17 -43 -29 -45 -26 -9 8 -111 -117 -138 -168 -13 -27 -28 -48
-32 -48 -5 0 -8 -12 -8 -27 0 -16 -8 -41 -17 -58 -25 -43 -25 -325 0 -370 9
-16 17 -41 17 -54 0 -13 18 -50 40 -83 22 -33 40 -61 40 -63 0 -1 17 -20 38
-41 58 -61 122 -109 177 -134 28 -12 61 -28 74 -34 15 -7 85 -11 180 -10 126
0 162 4 186 17 17 9 36 17 43 17 6 0 12 4 12 9 0 5 13 12 28 16 48 10 231 182
232 217 0 9 7 23 15 32 8 8 15 21 15 30 0 8 7 21 15 29 8 8 17 43 20 78 4 34
10 70 14 78 11 22 6 157 -8 206 -6 22 -11 54 -11 71 0 17 -7 37 -15 44 -8 7
-15 19 -15 27 0 8 -11 29 -25 47 -14 18 -25 37 -25 42 0 34 -223 214 -265 214
-7 0 -20 6 -28 14 -15 16 -153 25 -287 18z m235 -103 c33 -16 75 -42 93 -59
39 -36 92 -120 92 -147 0 -10 5 -24 11 -30 6 -6 16 -31 21 -55 5 -24 14 -65
20 -93 13 -63 5 -288 -11 -293 -6 -2 -11 -16 -11 -30 0 -15 -6 -39 -14 -53 -7
-14 -16 -37 -20 -52 -7 -29 -18 -45 -78 -111 -33 -37 -60 -55 -152 -97 -36
-17 -162 -17 -178 -1 -7 7 -25 12 -40 12 -16 0 -31 7 -34 15 -4 8 -12 15 -19
15 -19 0 -115 95 -115 113 0 8 -6 20 -14 26 -7 6 -16 25 -20 42 -3 17 -13 37
-21 45 -8 9 -15 30 -15 48 0 17 -6 38 -12 45 -9 8 -13 57 -13 171 0 114 4 163
13 172 6 6 12 19 12 28 0 8 7 28 15 44 8 15 15 37 15 48 0 35 121 178 151 178
11 0 19 4 19 10 0 5 17 12 38 16 20 4 42 10 47 14 33 26 143 15 220 -21z
M16085 2602 c-62 -5 -65 -12 -65 -127 0 -121 4 -135 36 -135 24 0 26 3 54 77
7 18 22 35 34 39 11 4 24 12 28 18 5 7 51 11 133 11 l126 0 0 -445 c1 -314 -2
-445 -10 -448 -6 -2 -11 -15 -11 -28 0 -33 -34 -64 -70 -64 -26 0 -30 -3 -30
-29 0 -16 6 -33 13 -38 17 -14 375 -9 389 5 6 6 8 22 4 36 -5 20 -13 26 -34
26 -31 0 -55 23 -67 66 -5 16 -10 228 -12 470 l-3 442 26 6 c51 13 217 5 244
-12 40 -25 80 -74 80 -98 0 -25 33 -49 56 -40 11 4 13 29 9 127 -2 70 -8 126
-14 132 -8 8 -142 12 -444 12 -237 0 -450 -1 -472 -3z M7848 2573 c-24 -27 -6
-63 30 -63 17 0 37 -9 48 -21 18 -20 19 -43 22 -382 1 -198 7 -366 11 -371 5
-6 12 -33 16 -61 10 -73 93 -193 143 -209 12 -4 22 -12 22 -17 0 -5 8 -9 18
-9 10 0 28 -7 40 -16 18 -12 50 -15 148 -15 76 0 131 4 139 11 7 6 23 13 36
15 12 3 26 9 29 15 4 6 14 12 24 14 9 1 31 17 50 35 38 37 58 34 50 -7 -3 -16
1 -35 10 -47 13 -18 26 -20 143 -20 109 0 130 2 146 18 24 24 7 57 -32 57 -15
0 -34 8 -42 18 -45 55 -44 49 -47 464 -2 271 1 410 8 439 13 46 47 84 88 94
42 10 52 33 26 59 -13 13 -45 16 -198 16 -171 0 -184 -1 -207 -21 l-24 -21 24
-19 c13 -10 31 -19 40 -19 10 0 28 -11 41 -25 l23 -24 -1 -392 c-1 -331 -4
-395 -16 -415 -25 -37 -88 -94 -104 -94 -9 0 -24 -7 -34 -16 -14 -13 -40 -17
-126 -17 -98 0 -112 2 -148 26 -96 60 -111 142 -108 582 2 298 5 317 45 357 8
9 30 19 47 23 24 5 32 12 32 29 0 43 -14 46 -210 46 -165 0 -189 -2 -202 -17z
M9177 2572 c-10 -10 -17 -24 -17 -30 0 -13 32 -32 55 -32 9 0 23 -7 32 -15 8
-8 19 -13 24 -9 5 3 14 -7 19 -23 6 -15 16 -39 23 -52 18 -35 17 -823 0 -829
-7 -2 -13 -12 -13 -23 0 -31 -31 -59 -66 -59 -36 0 -50 -27 -29 -57 11 -15 32
-18 170 -19 123 -1 160 2 171 13 29 29 12 63 -32 63 -23 0 -42 9 -63 29 l-30
29 -1 386 c0 335 2 386 14 386 9 0 21 -10 27 -22 7 -13 18 -27 25 -31 8 -4 14
-13 14 -19 0 -6 20 -35 45 -64 25 -28 45 -56 45 -61 0 -4 12 -19 27 -33 14
-14 37 -42 51 -62 13 -21 29 -38 33 -38 5 0 9 -4 9 -9 0 -12 111 -160 139
-185 12 -11 21 -26 21 -35 1 -9 28 -45 60 -81 33 -36 60 -70 60 -75 0 -6 9
-16 20 -23 18 -11 54 -59 86 -114 22 -38 58 -68 81 -68 l23 0 0 459 c0 252 3
486 6 519 8 74 39 116 96 126 42 8 55 31 31 58 -15 17 -31 18 -177 16 l-161
-3 -3 -29 c-4 -31 10 -46 44 -46 12 0 33 -11 47 -24 l26 -24 1 -341 c0 -287
-2 -341 -14 -341 -7 0 -21 15 -30 34 -9 19 -20 36 -24 38 -5 2 -31 35 -60 73
-28 39 -60 79 -71 90 -10 11 -24 31 -31 45 -7 14 -23 36 -36 50 -41 44 -84 97
-84 105 0 4 -20 32 -45 61 -25 28 -45 57 -45 63 0 5 -6 14 -13 18 -16 10 -77
88 -77 98 0 4 -17 27 -37 50 -21 23 -46 51 -55 63 -17 21 -26 22 -156 22 -122
0 -141 -2 -155 -18z M10546 2571 c-23 -25 -11 -48 28 -55 18 -4 42 -16 52 -27
18 -20 19 -46 22 -468 2 -420 1 -448 -16 -481 -15 -27 -27 -36 -51 -38 -24 -3
-32 -9 -37 -29 -11 -44 12 -52 139 -48 62 2 147 4 189 5 66 0 77 3 83 19 10
31 -5 48 -46 55 -24 4 -39 12 -39 20 0 8 -8 22 -17 32 -17 16 -18 51 -18 449
l0 432 28 36 c19 25 38 38 62 43 39 7 47 31 19 58 -13 13 -45 16 -198 16 -165
0 -185 -2 -200 -19z M11102 2553 c2 -31 7 -39 27 -41 13 -2 31 -10 38 -18 8
-8 20 -14 27 -14 7 0 18 -10 24 -22 7 -13 23 -41 37 -63 13 -22 24 -47 25 -56
0 -9 7 -30 15 -45 8 -16 15 -37 15 -47 0 -9 4 -25 10 -35 17 -31 38 -86 45
-117 3 -16 17 -53 31 -81 13 -27 26 -65 29 -84 2 -19 12 -50 21 -70 9 -19 20
-42 25 -51 4 -9 11 -33 14 -53 4 -20 11 -36 16 -36 5 0 9 -8 9 -17 1 -10 9
-36 20 -58 11 -22 19 -50 20 -62 0 -13 4 -23 9 -23 5 0 12 -12 15 -27 4 -16
13 -41 21 -58 7 -16 16 -38 19 -47 3 -11 15 -18 28 -18 25 0 51 39 64 93 3 15
10 27 15 27 5 0 9 10 9 23 0 12 6 34 14 48 7 14 16 42 20 62 4 21 11 37 16 37
5 0 12 16 16 35 3 19 10 37 14 40 5 3 11 24 15 48 4 23 18 65 31 93 13 28 24
62 24 75 0 14 6 33 14 44 7 11 16 33 20 50 4 16 12 32 17 35 5 4 11 19 13 36
2 16 11 43 20 59 9 17 16 40 16 52 0 12 5 25 10 28 6 3 10 15 10 25 0 10 7 25
15 33 7 8 17 28 21 43 9 39 50 82 102 105 49 23 58 38 42 68 -10 20 -19 21
-165 21 -126 0 -156 -3 -169 -16 -9 -8 -16 -21 -16 -27 0 -15 15 -39 24 -38
27 4 45 -2 65 -20 18 -17 21 -27 15 -52 -3 -18 -10 -33 -15 -35 -5 -2 -9 -16
-9 -32 0 -16 -6 -35 -13 -42 -8 -7 -16 -33 -20 -56 -3 -24 -17 -68 -32 -98
-14 -30 -28 -67 -30 -83 -2 -16 -15 -52 -29 -80 -13 -29 -28 -66 -32 -84 -3
-17 -10 -38 -15 -47 -4 -8 -15 -39 -24 -68 -19 -59 -38 -64 -43 -12 -2 18 -10
39 -18 47 -8 8 -14 24 -14 36 0 12 -7 31 -15 41 -8 11 -15 32 -15 46 0 14 -5
31 -10 36 -6 6 -13 23 -16 39 -3 15 -11 37 -19 49 -8 11 -15 28 -15 37 0 9 -7
30 -15 45 -8 16 -15 37 -15 46 0 9 -5 18 -11 20 -6 2 -13 17 -14 32 -2 16 -10
43 -18 60 -32 68 -47 108 -47 126 0 21 35 50 62 50 25 0 41 35 28 60 -10 19
-21 20 -216 20 l-205 0 3 -37z M12316 2574 c-27 -27 -20 -51 18 -58 21 -4 45
-19 60 -37 l26 -31 0 -436 0 -436 -26 -38 c-20 -29 -34 -38 -55 -38 -22 0 -30
-6 -35 -26 -4 -14 -2 -30 3 -35 6 -6 161 -11 393 -13 359 -2 385 -1 402 16 10
10 18 25 18 33 0 8 4 15 9 15 5 0 12 27 16 60 4 33 11 60 17 60 18 0 4 55 -15
58 -33 7 -67 -7 -67 -27 0 -10 -7 -24 -15 -31 -8 -7 -15 -20 -15 -29 0 -15
-15 -28 -70 -60 -38 -22 -328 -28 -355 -8 -19 14 -20 29 -23 217 -2 134 0 206
8 214 8 10 48 13 161 12 143 -2 153 -4 175 -25 13 -13 27 -34 30 -46 6 -24 35
-38 60 -28 19 7 21 285 2 301 -18 14 -58 -3 -58 -24 0 -9 -16 -32 -35 -50
l-34 -34 -144 0 c-98 0 -147 4 -155 12 -17 17 -17 419 0 436 8 8 60 12 167 12
126 0 161 -3 191 -17 39 -19 71 -61 77 -103 6 -33 23 -42 48 -26 18 13 20 23
17 107 -2 52 -8 99 -14 106 -8 10 -96 13 -389 13 -330 0 -380 -2 -393 -16z
M13383 2579 c-7 -7 -13 -23 -13 -36 0 -18 7 -25 28 -29 15 -3 39 -14 52 -24
l25 -19 0 -428 c0 -235 -3 -445 -6 -466 -8 -47 -32 -75 -68 -79 -19 -2 -27
-10 -29 -27 -2 -13 1 -28 6 -33 7 -7 308 -14 389 -9 15 1 25 33 17 55 -4 9
-17 16 -33 16 -16 0 -37 10 -49 23 -22 23 -22 30 -20 218 l3 194 44 3 c57 4
151 -42 151 -73 0 -6 14 -24 30 -40 17 -16 30 -35 30 -44 0 -8 7 -22 16 -32
19 -21 48 -71 70 -119 9 -19 19 -37 23 -40 11 -9 51 -69 51 -76 0 -4 10 -18
21 -30 12 -13 27 -34 33 -46 9 -17 19 -22 37 -19 13 2 67 5 119 5 52 1 101 5
108 9 6 5 12 19 12 32 0 20 -7 26 -40 35 -22 6 -40 14 -40 18 0 4 -14 16 -30
27 -17 11 -33 29 -36 39 -4 11 -17 31 -30 45 -13 14 -24 33 -24 41 -1 8 -14
31 -30 50 -17 19 -30 39 -30 46 0 6 -13 29 -29 51 -16 22 -37 55 -46 74 -10
18 -29 42 -42 52 -28 22 -28 60 1 65 21 4 106 91 106 109 0 6 8 19 17 28 24
24 23 216 -1 240 -9 9 -16 21 -16 27 0 16 -54 88 -66 88 -6 0 -24 12 -39 26
-16 15 -34 27 -41 28 -6 1 -20 8 -30 16 -24 21 -582 29 -601 9z m422 -79 c3
-5 22 -10 41 -10 21 0 37 -6 40 -15 3 -8 15 -17 26 -21 20 -6 58 -39 58 -50 0
-3 10 -26 21 -52 17 -37 20 -59 16 -110 -3 -36 -9 -67 -15 -71 -5 -3 -13 -17
-17 -30 -9 -30 -59 -79 -93 -93 -15 -5 -63 -9 -107 -9 -111 2 -118 11 -111
145 9 183 17 301 21 314 5 15 111 17 120 2z M15447 2572 c-25 -27 -12 -57 26
-60 41 -3 63 -25 72 -70 13 -60 17 -844 5 -856 -5 -5 -10 -18 -10 -28 0 -30
-32 -58 -66 -58 -36 0 -50 -27 -30 -56 11 -14 38 -17 197 -18 102 -1 190 2
197 7 6 5 12 22 12 38 0 25 -4 29 -28 29 -35 0 -72 37 -72 71 0 14 -3 28 -6
32 -8 8 -7 786 0 807 5 13 13 53 15 73 1 4 8 7 16 7 8 0 15 4 15 9 0 5 12 12
27 16 43 10 53 33 27 59 -13 13 -45 16 -198 16 -163 0 -185 -2 -199 -18z
M17115 2570 c-23 -26 -14 -47 26 -55 19 -4 42 -13 53 -19 28 -16 76 -72 99
-114 10 -20 37 -61 59 -90 22 -30 41 -60 42 -67 1 -8 10 -22 19 -33 9 -10 17
-24 17 -30 0 -7 4 -12 8 -12 5 0 17 -18 27 -40 10 -22 24 -45 31 -51 8 -6 19
-29 24 -50 13 -46 19 -356 8 -367 -4 -4 -8 -29 -9 -55 -3 -56 -27 -84 -79 -89
-28 -2 -36 -8 -38 -27 -2 -13 1 -28 6 -33 11 -11 327 -18 376 -9 26 6 32 12
34 37 3 29 0 32 -35 38 -32 5 -41 12 -58 49 -18 39 -20 59 -17 247 3 144 7
209 16 220 7 8 25 41 41 72 15 32 36 65 47 74 10 10 18 23 18 31 0 7 25 49 55
93 30 44 55 84 55 88 0 5 9 17 20 27 11 10 20 23 20 30 0 23 60 64 118 80 24
7 30 43 10 63 -17 17 -289 17 -306 0 -20 -20 -13 -47 16 -62 49 -26 57 -41 38
-81 -9 -19 -21 -37 -26 -40 -6 -3 -10 -13 -10 -21 0 -15 -39 -76 -52 -82 -5
-2 -8 -9 -8 -16 0 -7 -9 -21 -20 -31 -11 -10 -18 -20 -15 -23 8 -8 -25 -61
-44 -72 -16 -8 -23 -5 -40 19 -12 16 -21 33 -21 39 0 5 -13 26 -30 47 -16 21
-30 43 -30 50 0 6 -9 20 -20 30 -11 10 -20 24 -20 32 0 8 -5 19 -10 26 -42 49
-50 62 -50 77 0 25 21 39 64 42 43 3 54 18 38 54 l-12 24 -208 0 c-195 0 -210
-1 -227 -20z M20282 2578 c-26 -26 -14 -53 30 -68 75 -27 78 -48 78 -489 0
-321 -2 -379 -17 -424 -20 -63 -42 -99 -57 -94 -33 12 -65 -50 -35 -69 15 -9
356 -12 389 -4 19 5 25 13 25 35 0 25 -5 30 -37 38 -71 17 -73 24 -76 258 l-3
209 142 0 141 0 34 -37 c19 -20 34 -44 34 -52 1 -18 23 -51 34 -51 4 0 14 6
22 14 11 11 14 49 14 175 l0 161 -25 6 c-31 8 -27 11 -53 -49 -14 -31 -30 -50
-47 -57 -33 -13 -278 -13 -290 -1 -6 6 -8 93 -5 218 l5 208 139 3 c86 2 143
-1 150 -8 5 -5 20 -10 32 -10 23 0 42 -31 74 -117 15 -40 47 -45 56 -9 7 30
-1 199 -10 215 -10 16 -727 16 -744 -1z M21962 2578 c-7 -7 -12 -22 -12 -35 0
-17 7 -24 28 -28 53 -12 61 -20 80 -85 13 -46 15 -752 1 -786 -5 -14 -10 -43
-11 -65 -1 -42 -21 -67 -58 -74 -36 -7 -55 -54 -30 -70 17 -10 748 -15 774 -5
13 4 29 23 35 42 7 18 17 42 21 53 5 11 11 41 14 67 3 26 11 56 17 66 17 26 4
52 -24 52 -31 0 -53 -26 -60 -73 -7 -45 -43 -94 -77 -104 -45 -14 -377 -10
-392 5 -10 10 -14 101 -16 410 -3 501 3 551 77 565 35 7 44 28 25 56 -14 20
-23 21 -198 21 -128 0 -186 -4 -194 -12z M24272 2578 c-7 -7 -12 -22 -12 -35
0 -17 7 -24 28 -28 15 -4 34 -11 42 -16 8 -5 23 -12 33 -15 9 -4 17 -11 17
-17 0 -6 8 -19 18 -30 15 -17 17 -54 20 -413 2 -252 -1 -408 -8 -433 -15 -56
-45 -89 -83 -93 -25 -2 -33 -8 -35 -26 -6 -44 7 -47 170 -45 84 1 156 2 160 2
13 2 28 39 22 55 -4 10 -18 16 -38 16 -36 0 -44 5 -74 44 -21 28 -22 32 -21
407 0 322 2 379 14 379 8 0 24 -18 35 -39 11 -22 28 -46 37 -53 10 -7 36 -39
57 -70 22 -32 43 -58 48 -58 5 0 22 -21 38 -47 17 -26 37 -51 45 -56 8 -4 15
-13 15 -19 0 -5 20 -33 45 -60 25 -28 45 -55 45 -62 0 -6 16 -27 35 -46 20
-19 41 -47 48 -62 6 -15 16 -28 22 -28 5 0 18 -12 27 -28 28 -46 75 -112 110
-152 18 -21 51 -61 73 -89 41 -52 77 -66 89 -35 3 9 6 238 6 509 0 319 4 496
10 500 6 3 10 15 10 26 0 11 8 23 18 26 9 4 20 11 23 16 4 5 22 12 40 16 24 5
35 13 37 28 5 37 -26 44 -195 41 l-158 -3 0 -35 c0 -31 3 -35 30 -38 33 -4 69
-35 80 -71 4 -14 8 -168 9 -343 3 -336 0 -355 -41 -290 -10 15 -26 33 -35 40
-10 7 -18 17 -18 22 0 5 -11 21 -25 36 -14 15 -25 31 -25 36 0 5 -15 25 -34
44 -19 20 -41 50 -50 67 -8 18 -35 52 -60 77 -25 25 -45 53 -46 63 0 9 -4 17
-8 17 -5 0 -34 35 -65 78 -63 85 -111 146 -188 240 l-51 62 -137 0 c-93 0
-141 -4 -149 -12z M25609 2573 c-24 -26 -8 -63 26 -63 16 0 36 -11 50 -27 l24
-28 1 -446 c0 -385 -2 -448 -15 -459 -8 -7 -15 -19 -15 -26 0 -8 -12 -17 -27
-20 -16 -4 -34 -11 -40 -17 -16 -12 -17 -43 -2 -52 14 -9 554 -9 648 0 40 4
85 14 100 21 14 8 34 14 43 14 10 0 44 17 75 38 32 20 63 39 69 42 9 4 81 84
113 125 4 6 11 23 15 38 3 15 11 27 16 27 6 0 10 10 10 23 0 12 8 34 17 47 14
20 17 50 17 176 1 157 2 153 -51 256 -7 14 -13 33 -13 42 0 9 -4 16 -9 16 -5
0 -12 8 -15 18 -3 9 -16 28 -28 43 -13 14 -28 34 -34 45 -6 10 -20 23 -32 29
-12 5 -22 15 -22 21 0 6 -12 17 -27 24 -16 8 -38 23 -50 34 -13 11 -23 16 -23
12 0 -4 -12 2 -26 13 -15 11 -31 18 -36 15 -5 -3 -21 3 -36 13 -25 16 -58 18
-367 21 -321 4 -341 3 -356 -15z m561 -73 c10 -6 37 -11 60 -12 22 -1 45 -7
52 -15 6 -7 26 -21 45 -29 42 -21 118 -105 128 -141 3 -15 10 -30 14 -33 22
-17 42 -68 47 -122 3 -35 10 -88 16 -119 7 -41 7 -66 -1 -90 -6 -19 -11 -56
-12 -84 -2 -50 -29 -127 -55 -152 -8 -8 -14 -20 -14 -27 0 -17 -97 -116 -114
-116 -7 0 -27 -7 -42 -15 -16 -8 -36 -15 -44 -15 -9 0 -21 -5 -28 -12 -7 -7
-56 -13 -124 -15 -99 -4 -117 -2 -144 16 -44 27 -45 43 -48 538 -2 355 0 421
12 436 13 14 33 17 124 17 60 0 118 -5 128 -10z M28212 2578 c-19 -19 -15 -58
6 -58 9 0 30 -7 46 -15 15 -8 33 -15 38 -15 21 0 48 -44 49 -79 3 -116 -1
-830 -5 -850 -8 -37 -35 -60 -75 -63 -29 -2 -37 -7 -39 -27 -2 -13 1 -28 7
-34 14 -14 348 -20 356 -6 4 5 4 22 0 38 -5 24 -12 30 -44 35 -21 3 -46 15
-57 27 -18 20 -19 43 -22 410 -2 344 -1 389 13 389 8 0 15 -5 15 -11 0 -7 20
-35 44 -63 24 -28 46 -60 50 -71 3 -11 22 -37 41 -57 42 -44 143 -171 169
-213 11 -16 34 -46 53 -65 18 -19 33 -39 33 -45 0 -5 18 -29 39 -52 22 -23 48
-54 57 -70 10 -15 26 -37 35 -48 63 -73 80 -95 92 -118 22 -43 86 -107 106
-107 10 0 22 7 25 16 3 9 6 242 6 520 l0 504 30 27 c17 16 50 33 73 39 44 11
58 34 37 59 -17 21 -317 22 -344 2 -27 -20 -16 -50 21 -60 17 -5 44 -23 60
-39 l28 -29 3 -340 c2 -199 -1 -339 -6 -339 -5 0 -18 12 -28 26 -10 14 -25 32
-31 39 -7 8 -13 18 -13 24 0 5 -6 14 -12 18 -16 10 -78 89 -78 99 0 4 -17 26
-37 48 -61 67 -83 96 -83 105 0 4 -10 16 -21 27 -12 10 -33 37 -47 59 -14 22
-33 46 -44 53 -10 7 -18 19 -18 26 0 7 -11 23 -25 36 -14 13 -25 29 -25 36 0
7 -6 17 -13 21 -8 4 -45 49 -83 98 -37 50 -73 93 -79 97 -18 13 -290 9 -303
-4z"/>
</g>
</svg>
