<svg width="172" height="160" viewBox="0 0 172 160" fill="none" xmlns="http://www.w3.org/2000/svg">
<path fill-rule="evenodd" clip-rule="evenodd" d="M49.1147 45.0033C49.1192 45.0026 49.1238 45.0024 49.1283 45.0017C49.1322 45.0011 49.1362 45.001 49.1401 45.0004C49.1448 44.9996 49.1496 44.999 49.1543 44.9982C49.158 44.9976 49.1618 44.9971 49.1655 44.9964L49.1543 44.9982L49.1401 45.0004L49.1283 45.0017L49.1147 45.0033Z" fill="#0A2D86"/>
<path fill-rule="evenodd" clip-rule="evenodd" d="M49.1655 44.9964C49.1618 44.9971 49.158 44.9976 49.1543 44.9982C49.1496 44.999 49.1448 44.9996 49.1401 45.0004C49.1362 45.001 49.1322 45.0011 49.1283 45.0017C49.1238 45.0024 49.1192 45.0026 49.1147 45.0033C49.1169 45.0029 49.1126 45.0035 49.1147 45.0033L49.1283 45.0017C49.1303 45.0015 49.1381 45.0007 49.1401 45.0004L49.1543 44.9982L49.1655 44.9964Z" fill="#0A2D86"/>
<path fill-rule="evenodd" clip-rule="evenodd" d="M49.1655 44.9964C49.7487 44.8982 50.2815 44.6773 50.742 44.3648C50.2716 44.6836 49.7259 44.9067 49.1283 45.0017C49.1238 45.0024 49.1192 45.0026 49.1147 45.0033C49.1169 45.0029 49.1126 45.0035 49.1147 45.0033L49.1283 45.0017M49.1655 44.9964L49.1543 44.9982ZM49.1543 44.9982L49.1401 45.0004Z" fill="#0A2D86"/>
<path fill-rule="evenodd" clip-rule="evenodd" d="M49.1147 45.0033C49.1192 45.0026 49.1238 45.0024 49.1283 45.0017L49.1147 45.0033ZM49.1283 45.0017L49.1655 44.9964L49.1543 44.9982L49.1401 45.0004L49.1283 45.0017Z" fill="#0A2D86"/>
<path fill-rule="evenodd" clip-rule="evenodd" d="M49.1147 45.0033C49.1192 45.0026 49.1238 45.0024 49.1283 45.0017L49.1147 45.0033Z" fill="#0A2D86"/>
<path fill-rule="evenodd" clip-rule="evenodd" d="M49.1147 45.0033C49.1192 45.0026 49.1238 45.0024 49.1283 45.0017L49.1147 45.0033Z" fill="#0A2D86"/>
<path fill-rule="evenodd" clip-rule="evenodd" d="M49.1147 45.0033C49.1192 45.0026 49.1238 45.0024 49.1283 45.0017L49.1147 45.0033Z" fill="#0A2D86"/>
<path fill-rule="evenodd" clip-rule="evenodd" d="M49.1147 45.0033C49.1192 45.0026 49.1238 45.0024 49.1283 45.0017L49.1147 45.0033Z" fill="#0A2D86"/>
<path fill-rule="evenodd" clip-rule="evenodd" d="M50.742 44.3648C50.2681 44.6857 49.7175 44.9095 49.1147 45.0033C49.0963 45.0091 49.078 45.0152 49.0597 45.0213L49.0395 45.028C49.0075 45.0387 48.9751 45.0495 48.9429 45.0594C48.7799 45.1095 48.6174 45.1595 48.4575 45.222C47.8849 45.446 47.0644 45.8568 46.2065 46.5814C43.0852 49.2183 42.4835 53.2014 41.9663 57.016C41.2807 62.289 42.3415 66.5812 44.5884 69.3607C46.7313 72.0113 50.4832 73.9396 56.7251 73.5091C60.2827 73.2638 63.3849 72.9572 66.1958 72.6761L66.7461 72.621C69.1815 72.3767 71.6178 72.1324 74.062 71.9974C75.2399 71.2109 76.1379 70.0221 76.5327 68.6576C77.2074 66.3251 77.1641 60.8483 68.2065 50.8783C64.7953 47.9871 62.9466 44.2182 62.7026 40.2113C62.4565 36.1676 63.8559 32.1829 66.3706 28.8529C71.4304 22.1528 81.08 17.8677 93.0532 19.5384C99.6056 20.4528 104.108 23.7235 106.911 28.1839C109.602 32.467 110.571 37.5834 110.807 42.1693C111.046 46.8043 110.553 51.2664 110.018 54.5228L110.001 54.6271C109.704 56.4393 109.398 58.3042 108.856 60.0648C108.692 60.6554 108.403 61.18 108.027 61.6146C108.438 62.3811 108.495 63.1892 108.49 64.0287C108.479 65.7743 108.638 67.5281 108.94 69.2464C109.518 72.5393 110.691 75.7069 112.703 77.5511C115.914 80.4946 120.891 79.5558 124.839 78.8111L125.224 78.7386C124.97 77.8472 124.661 76.9246 124.286 75.9857C124.027 75.3403 123.613 74.5496 123.157 73.6804C121.74 70.978 119.545 66.802 121.701 64.6429C121.774 64.5722 121.848 64.5033 121.926 64.4379C122.701 63.7865 123.715 63.4478 124.727 63.4984C125.848 63.5544 126.639 64.0497 127.025 64.3392C127.754 64.8857 128.234 65.6072 128.532 66.0912C129.222 67.2131 130.202 69.2323 131.714 73.014C132.321 74.5298 132.789 76.0079 133.153 77.4115C137.282 77.0999 140.604 78.1167 142.959 79.3021C144.49 80.0722 145.907 81.0539 147.118 82.265C148.625 83.8803 148.542 86.4182 146.926 87.9252C145.135 89.5956 143 89.0554 141.27 87.7298C141.095 87.5664 140.427 86.9827 139.364 86.4476C138.189 85.8564 136.506 85.3015 134.326 85.3617C134.371 86.5476 134.382 87.7496 134.253 88.932C134.248 88.9726 134.326 88.5 134.252 88.9427C134.008 91.1381 132.03 92.7201 129.834 92.4759C127.64 92.2317 126.058 90.2546 126.301 88.0599C126.34 87.5966 126.351 87.1312 126.352 86.6664C124.646 86.9817 122.827 87.2805 121.004 87.4252C116.589 87.7756 111.487 87.289 107.297 83.4486C101.995 78.5879 100.22 70.3624 100.503 63.3373C100.503 63.3373 100.503 63.3373 100.503 63.3265C100.544 62.3901 100.904 61.5429 101.473 60.8851C101.006 60.0117 100.861 58.9648 101.145 57.9349C101.252 57.5278 101.352 57.1188 101.446 56.7084C103.162 49.1864 104.446 39.2991 100.136 32.4408C98.5797 29.9638 96.1439 28.0469 91.9468 27.4613C82.4207 26.1322 75.8195 29.6153 72.7544 33.6742C71.2069 35.7235 70.5749 37.8661 70.688 39.725C70.7971 41.5173 71.6091 43.336 73.5269 44.8988L73.9663 45.3168C80.1996 52.2063 87.8675 62.821 83.5981 72.5873C84.8861 72.8734 86.1768 73.2629 87.4858 73.7865C93.8079 76.3155 98.2639 82.4262 101.509 88.1957L101.522 88.2189C101.704 88.5425 101.877 88.8713 102.047 89.2004L102.163 89.423C102.308 89.7042 102.455 89.9871 102.605 90.266C103.558 92.2589 102.719 94.6555 100.726 95.6087C98.7955 96.5321 96.4934 95.7698 95.4849 93.9095C94.4724 91.9268 93.3456 90.01 92.0532 88.1937C89.8262 85.0639 87.1372 82.2634 84.5142 81.2142C81.5313 80.0211 78.5681 79.759 74.3472 79.9935C72.1707 80.1144 70.0005 80.3331 67.8318 80.5517C67.5517 80.5799 67.2717 80.6081 66.9917 80.6361C64.1777 80.9175 60.9672 81.2359 57.2749 81.4906C49.0174 82.06 42.4888 79.489 38.3667 74.39C34.372 69.4484 33.1744 62.7893 34.02 56.1019C34.6115 48.1795 37.6719 43.3183 41.0435 40.4701C42.9091 38.894 45.189 37.6351 47.605 37.1498C47.6981 37.1311 47.7922 37.1134 47.8862 37.099C47.8877 37.1023 47.8996 37.0955 47.897 37.098C50.0809 36.7651 52.1217 38.2657 52.4546 40.4496C52.5464 41.0522 52.5 41.6716 52.3165 42.2528C52.2805 42.3647 52.2407 42.4753 52.1956 42.584L52.1867 42.6052C52.0398 42.9529 51.843 43.277 51.6067 43.5712L51.5864 43.596C51.4181 43.8002 51.2295 43.9875 51.0244 44.1547C50.9749 44.1952 50.9242 44.2343 50.8726 44.2724C50.8298 44.3041 50.7862 44.3348 50.742 44.3648Z" fill="#0A2D86"/>
<path fill-rule="evenodd" clip-rule="evenodd" d="M102 10C112.486 10 123.224 15.2359 128.507 24.1836C135.246 25.1797 140.697 30.1304 142.426 36.6016C142.977 36.6084 143.563 36.6425 144.172 36.7168C147.715 37.1489 152.143 38.989 154.625 44.3076C156.774 48.9122 157.075 54.2935 156.95 58.1895C156.889 60.1107 156.719 61.7946 156.558 63.0312C160.568 67.0652 163 72.672 163 79C163 86.9308 158.984 93.9198 152.891 98.0508C151.868 107.58 143.8 115 134 115C130.022 115 125.885 113.389 122.533 111.265C121.036 110.316 119.578 109.19 118.276 107.93C118.748 109.538 119 111.24 119 113C119 120.854 113.969 127.532 106.955 129.99C108.638 132.956 111.207 134.678 113.734 135.69C115.372 133.454 118.016 132 121 132C125.971 132 130 136.029 130 141C130 145.971 125.971 150 121 150C116.976 150 113.568 147.359 112.417 143.715C112.3 143.677 112.18 143.641 112.062 143.601C107.962 142.21 102.815 139.315 99.6826 133.363C99.2436 132.529 98.8708 131.683 98.5537 130.834C89.7698 129.64 83 122.111 83 113C83 110.659 83.4474 108.422 84.2607 106.37C63.1979 107.904 50.0356 98.5221 44.7129 88.1006C44.0033 88.6635 43.2407 89.1598 42.4336 89.5908C38.9104 91.4723 34.7788 92 31 92C18.8497 92 9.00002 82.1502 9 70C9 67.6838 9.58893 63.0178 11.8574 58.6543C13.7568 55.001 16.9605 51.3804 22.001 49.7832C22.0487 44.0035 23.9999 38.8881 27.6934 35.1943C31.4334 31.4543 36.631 29.501 42.5 29.501C42.7534 29.501 43.0439 29.4903 43.4189 29.4766C43.5795 29.4707 43.7557 29.4635 43.9512 29.457C47.4574 21.1027 55.0679 15.5 65 15.5H65.167C67.4524 15.4994 70.4926 15.4986 73.6953 16.5371C75.8459 17.2345 77.9617 18.3563 80.0303 20.0703C85.3447 13.9084 93.2145 10 102 10ZM101.553 103.015C99.4895 103.642 97.48 104.18 95.5244 104.631C92.7996 106.417 91 109.498 91 113C91 117.102 93.4705 120.625 97.0039 122.167C96.9738 120.149 97.143 118.256 97.3906 116.597C97.7389 114.263 98.2604 112.268 98.6953 110.851C98.9135 110.139 99.1119 109.566 99.2607 109.159C99.3395 108.944 99.3991 108.659 99.5293 108.464C99.5273 108.467 99.5186 108.489 99.5957 108.489C99.574 108.48 99.5522 108.471 99.5303 108.462C100.38 106.423 102.722 105.458 104.761 106.308C106.799 107.157 107.763 109.497 106.915 111.536L106.773 111.909C106.668 112.196 106.515 112.635 106.343 113.196C105.476 116.023 104.901 119.131 104.969 122.179C108.517 120.643 111 117.112 111 113C111 107.663 106.818 103.302 101.553 103.015ZM140.5 64.5C134.946 64.5 130.877 66.4676 128.368 70.2051C128.361 70.2164 128.353 70.2281 128.346 70.2393L128.332 70.2588C128.255 70.3747 128.173 70.4857 128.087 70.5908C127.936 70.7733 127.766 70.9445 127.579 71.1025C127.339 71.3053 127.079 71.4776 126.804 71.6162C126.683 71.6771 126.559 71.7321 126.433 71.7803L126.429 71.7822C126.139 71.8931 125.839 71.9672 125.536 72.0078C125.442 72.0206 125.347 72.031 125.252 72.0371C125.18 72.0417 125.108 72.0442 125.036 72.0449C125.001 72.0452 124.966 72.0436 124.931 72.043C124.539 72.0365 124.145 71.9739 123.764 71.8496L123.761 71.8486C123.692 71.8263 123.623 71.8025 123.556 71.7764C123.291 71.6736 123.033 71.5405 122.787 71.377C122.598 71.2512 122.422 71.1123 122.262 70.9619C122.15 70.8569 122.044 70.744 121.942 70.624L121.898 70.5723C119.508 67.7681 115.962 66 112 66C104.82 66 99 71.8203 99 79C99 82.7308 100.56 87.2938 103.206 90.9072C105.888 94.5694 109.086 96.5 112 96.5C112.257 96.5 112.508 96.5241 112.751 96.5703C113.029 96.5176 113.317 96.4938 113.611 96.502C117.654 96.6142 120.315 95.9551 122.051 95.0654C123.724 94.2078 124.738 93.0376 125.381 91.6719C126.783 88.6917 126.555 84.4456 125.606 80.416C125.101 78.2656 126.434 76.1124 128.584 75.6064C130.734 75.1005 132.888 76.4336 133.394 78.584C134.445 83.0544 135.217 89.5584 132.619 95.0781C131.262 97.9624 129.026 100.48 125.699 102.185C125.301 102.389 124.889 102.58 124.466 102.758C125.16 103.364 125.948 103.957 126.816 104.507C129.37 106.125 132.023 107 134 107C140.075 107 145 102.075 145 96C145 92.8128 143.649 89.9469 141.478 87.9326C139.858 86.4303 139.764 83.8999 141.266 82.2803C142.768 80.6606 145.298 80.5652 146.918 82.0674C148.877 83.8847 150.455 86.1144 151.512 88.6182C153.692 86.0123 155 82.6579 155 79C155 70.7157 148.784 64.5 140.5 64.5ZM74.6338 58.7471C65.7872 58.2493 59.7849 60.5589 55.9961 63.8457C51.9757 67.3336 50.0001 72.3018 50 77.5C50.0002 83.9603 56.8815 96.4325 74.7734 98.3555C71.0377 95.1971 70 91.0619 70 87.5C70 81.4768 72.6696 75.3539 79.1084 72.9648C81.1795 72.1964 83.4815 73.2522 84.25 75.3232C85.0184 77.3943 83.9626 79.6963 81.8916 80.4648C79.5721 81.3254 78 83.6341 78 87.5C78 89.7109 78.598 91.5472 80.9365 92.9541C83.3416 94.4009 87.9557 95.6279 96.5 95.2842C93.1381 90.5459 91 84.5211 91 79C91 73.2919 93.2779 68.1153 96.9736 64.3301C94.9948 64.7709 92.9836 65 91 65C84.6913 65 78.8055 62.8856 74.6338 58.7471ZM42.5 37.501C38.4281 37.501 35.3753 38.826 33.3506 40.8506C31.4294 42.7719 30.1377 45.6195 30.0107 49.3848C33.3233 50.0782 36.4275 51.7264 38.5762 54.4736C41.6749 58.4359 42.1099 63.7959 39.6865 69.5518C38.8293 71.5876 36.4842 72.5435 34.4482 71.6865C32.4122 70.8292 31.4562 68.4833 32.3135 66.4473C33.8896 62.7037 33.1837 60.564 32.2744 59.4014C31.2387 58.0774 29.1808 57.0438 26.4189 57.0029C22.6274 57.4018 20.3954 59.5736 18.9551 62.3438C17.4114 65.3129 17 68.647 17 70C17 77.732 23.268 84 31 84C34.1868 84 36.8048 83.5275 38.665 82.5342C40.2552 81.685 41.4602 80.3823 42.0078 78.041C42.0028 77.8601 42 77.6795 42 77.5C42.0001 70.2721 44.7747 62.9898 50.7539 57.8027C52.3119 56.4512 54.0574 55.267 55.9863 54.2725C55.0405 53.7044 54.1338 53.0884 53.2725 52.4326C48.3347 48.673 44.4657 43.2802 43.2041 37.4873C42.9362 37.4951 42.6892 37.501 42.5 37.501ZM142.616 44.6084C141.589 49.3586 138.577 53.3672 134.503 55.7236C132.002 57.1712 129.098 58 126 58C121.252 58 116.959 56.0533 113.875 52.915C112.65 54.8793 111.115 56.6382 109.358 58.165C110.224 58.0564 111.105 58 112 58C116.76 58 121.151 59.5868 124.672 62.2539C128.868 58.2928 134.448 56.5 140.5 56.5C143.51 56.5 146.358 57.0498 148.95 58.0586L148.954 57.9346C149.065 54.4557 148.726 50.5864 147.375 47.6914C146.357 45.5108 144.785 44.8502 143.203 44.6572C143.005 44.6331 142.809 44.6173 142.616 44.6084ZM102 18C94.734 18 88.3255 21.688 84.5508 27.3105C84.7975 29.9407 85.9274 32.5386 87.6162 34.543C89.5485 36.836 91.8867 38 94 38C97.1608 38 100.159 36.0452 101.803 32.7256C102.783 30.7459 105.182 29.9359 107.162 30.916C109.142 31.8963 109.952 34.2957 108.972 36.2754C106.187 41.8983 100.646 46 94 46C88.9338 46 84.5218 43.2854 81.499 39.6982C78.779 36.4703 76.92 32.2502 76.5625 27.7959C74.582 25.6429 72.7968 24.6554 71.2275 24.1465C69.3165 23.5268 67.4264 23.5 65 23.5C57.9827 23.5 52.8412 27.5759 50.7812 34.0391C51.0033 37.9994 53.6384 42.6574 58.1182 46.0684C61.447 48.6029 65.4737 50.1939 69.6504 50.2734C68.8472 47.4543 68.6148 44.3358 69.0312 41.0039C69.3053 38.8119 71.304 37.2573 73.4961 37.5312C75.6881 37.8053 77.2428 39.804 76.9688 41.9961C76.4827 45.8848 77.2761 48.9679 78.8066 51.2852L78.8213 51.3076L78.8359 51.3281L78.8525 51.3545C79.2421 51.9349 79.6784 52.4665 80.1523 52.9502C82.5836 55.4316 86.3625 57 91 57C100.626 57 109 50.1224 109 42C109 41.8905 109.004 41.7821 109.013 41.6748C109.004 41.4511 109 41.2258 109 41C109 33.9419 113.301 27.8879 119.426 25.3174C115.331 20.8557 108.801 18 102 18ZM125.943 32C120.999 32.0306 117 36.0484 117 41C117 45.9706 121.029 50 126 50C127.638 50 129.174 49.5634 130.497 48.7988C130.622 48.7265 130.745 48.6504 130.866 48.5723C131.005 48.4831 131.139 48.3893 131.272 48.293C131.269 48.2957 131.265 48.2991 131.262 48.3018C131.287 48.2832 131.313 48.2649 131.339 48.2461C131.317 48.2622 131.294 48.2771 131.272 48.293C131.483 48.1405 131.687 47.98 131.883 47.8105C131.966 47.7383 132.049 47.6651 132.13 47.5898C132.152 47.5693 132.174 47.5491 132.196 47.5283C132.36 47.3724 132.518 47.2098 132.67 47.042C132.856 46.8364 133.033 46.6225 133.2 46.4004C133.291 46.2801 133.378 46.1571 133.462 46.0322C133.594 45.8373 133.718 45.637 133.834 45.4316C134.389 44.4522 134.766 43.3591 134.921 42.1953C134.933 42.104 134.944 42.0121 134.953 41.9199C134.981 41.6451 134.997 41.3666 135 41.085V40.9131C134.954 36.0027 130.974 32.0324 126.061 32H125.943Z" fill="url(#paint0_linear_360_654)"/>
<circle cx="121" cy="141" r="4" fill="#001430"/>
<defs>
<linearGradient id="paint0_linear_360_654" x1="36" y1="45" x2="132.5" y2="113.5" gradientUnits="userSpaceOnUse">
<stop stop-color="#06C8F2"/>
<stop offset="0.471154" stop-color="#0FA1EA"/>
<stop offset="1" stop-color="#2643D4"/>
</linearGradient>
</defs>
</svg>
