<svg width="175" height="175" viewBox="0 0 175 175" fill="none" xmlns="http://www.w3.org/2000/svg">
<rect width="175" height="175" rx="16" fill="white"/>
<path fill-rule="evenodd" clip-rule="evenodd" d="M51.1147 53.0033C51.1192 53.0026 51.1238 53.0024 51.1283 53.0017C51.1322 53.0011 51.1362 53.001 51.1401 53.0004C51.1448 52.9996 51.1496 52.999 51.1543 52.9982C51.158 52.9976 51.1618 52.9971 51.1655 52.9964L51.1543 52.9982L51.1401 53.0004L51.1283 53.0017L51.1147 53.0033Z" fill="#0A2D86"/>
<path fill-rule="evenodd" clip-rule="evenodd" d="M51.1655 52.9964C51.1618 52.9971 51.158 52.9976 51.1543 52.9982C51.1496 52.999 51.1448 52.9996 51.1401 53.0004C51.1362 53.001 51.1322 53.0011 51.1283 53.0017C51.1238 53.0024 51.1192 53.0026 51.1147 53.0033C51.1169 53.0029 51.1126 53.0035 51.1147 53.0033L51.1283 53.0017C51.1303 53.0015 51.1381 53.0007 51.1401 53.0004L51.1543 52.9982L51.1655 52.9964Z" fill="#0A2D86"/>
<path fill-rule="evenodd" clip-rule="evenodd" d="M51.1655 52.9964C51.7487 52.8982 52.2815 52.6773 52.742 52.3648C52.2716 52.6836 51.7259 52.9067 51.1283 53.0017C51.1238 53.0024 51.1192 53.0026 51.1147 53.0033C51.1169 53.0029 51.1126 53.0035 51.1147 53.0033L51.1283 53.0017M51.1655 52.9964L51.1543 52.9982ZM51.1543 52.9982L51.1401 53.0004Z" fill="#0A2D86"/>
<path fill-rule="evenodd" clip-rule="evenodd" d="M51.1147 53.0033C51.1192 53.0026 51.1238 53.0024 51.1283 53.0017L51.1147 53.0033ZM51.1283 53.0017L51.1655 52.9964L51.1543 52.9982L51.1401 53.0004L51.1283 53.0017Z" fill="#0A2D86"/>
<path fill-rule="evenodd" clip-rule="evenodd" d="M51.1147 53.0033C51.1192 53.0026 51.1238 53.0024 51.1283 53.0017L51.1147 53.0033Z" fill="#0A2D86"/>
<path fill-rule="evenodd" clip-rule="evenodd" d="M51.1147 53.0033C51.1192 53.0026 51.1238 53.0024 51.1283 53.0017L51.1147 53.0033Z" fill="#0A2D86"/>
<path fill-rule="evenodd" clip-rule="evenodd" d="M51.1147 53.0033C51.1192 53.0026 51.1238 53.0024 51.1283 53.0017L51.1147 53.0033Z" fill="#0A2D86"/>
<path fill-rule="evenodd" clip-rule="evenodd" d="M51.1147 53.0033C51.1192 53.0026 51.1238 53.0024 51.1283 53.0017L51.1147 53.0033Z" fill="#0A2D86"/>
<path fill-rule="evenodd" clip-rule="evenodd" d="M52.742 52.3648C52.2681 52.6857 51.7175 52.9095 51.1147 53.0033C51.0963 53.0091 51.078 53.0152 51.0597 53.0213L51.0395 53.028C51.0075 53.0387 50.9751 53.0495 50.9429 53.0594C50.7799 53.1095 50.6174 53.1595 50.4575 53.222C49.8849 53.446 49.0644 53.8568 48.2065 54.5814C45.0852 57.2183 44.4835 61.2014 43.9663 65.016C43.2807 70.289 44.3415 74.5812 46.5884 77.3607C48.7313 80.0113 52.4832 81.9396 58.7251 81.5091C62.2827 81.2638 65.3849 80.9572 68.1958 80.6761L68.7461 80.621C71.1815 80.3767 73.6178 80.1324 76.062 79.9974C77.2399 79.2109 78.1379 78.0221 78.5327 76.6576C79.2074 74.3251 79.1641 68.8483 70.2065 58.8783C66.7953 55.9871 64.9466 52.2182 64.7026 48.2113C64.4565 44.1676 65.8559 40.1829 68.3706 36.8529C73.4304 30.1528 83.08 25.8677 95.0532 27.5384C101.606 28.4528 106.108 31.7235 108.911 36.1839C111.602 40.467 112.571 45.5834 112.807 50.1693C113.046 54.8043 112.553 59.2664 112.018 62.5228L112.001 62.6271C111.704 64.4393 111.398 66.3042 110.856 68.0648C110.692 68.6554 110.403 69.18 110.027 69.6146C110.438 70.3811 110.495 71.1892 110.49 72.0287C110.479 73.7743 110.638 75.5281 110.94 77.2464C111.518 80.5393 112.691 83.7069 114.703 85.5511C117.914 88.4946 122.891 87.5558 126.839 86.8111L127.224 86.7386C126.97 85.8472 126.661 84.9246 126.286 83.9857C126.027 83.3403 125.613 82.5496 125.157 81.6804C123.74 78.978 121.545 74.802 123.701 72.6429C123.774 72.5722 123.848 72.5033 123.926 72.4379C124.701 71.7865 125.715 71.4478 126.727 71.4984C127.848 71.5544 128.639 72.0497 129.025 72.3392C129.754 72.8857 130.234 73.6072 130.532 74.0912C131.222 75.2131 132.202 77.2323 133.714 81.014C134.321 82.5298 134.789 84.0079 135.153 85.4115C139.282 85.0999 142.604 86.1167 144.959 87.3021C146.49 88.0722 147.907 89.0539 149.118 90.265C150.625 91.8803 150.542 94.4182 148.926 95.9252C147.135 97.5956 145 97.0554 143.27 95.7298C143.095 95.5664 142.427 94.9827 141.364 94.4476C140.189 93.8564 138.506 93.3015 136.326 93.3617C136.371 94.5476 136.382 95.7496 136.253 96.932C136.248 96.9726 136.326 96.5 136.252 96.9427C136.008 99.1381 134.03 100.72 131.834 100.476C129.64 100.232 128.058 98.2546 128.301 96.0599C128.34 95.5966 128.351 95.1312 128.352 94.6664C126.646 94.9817 124.827 95.2805 123.004 95.4252C118.589 95.7756 113.487 95.289 109.297 91.4486C103.995 86.5879 102.22 78.3624 102.503 71.3373C102.503 71.3373 102.503 71.3373 102.503 71.3265C102.544 70.3901 102.904 69.5429 103.473 68.8851C103.006 68.0117 102.861 66.9648 103.145 65.9349C103.252 65.5278 103.352 65.1188 103.446 64.7084C105.162 57.1864 106.446 47.2991 102.136 40.4408C100.58 37.9638 98.1439 36.0469 93.9468 35.4613C84.4207 34.1322 77.8195 37.6153 74.7544 41.6742C73.2069 43.7235 72.5749 45.8661 72.688 47.725C72.7971 49.5173 73.6091 51.336 75.5269 52.8988L75.9663 53.3168C82.1996 60.2063 89.8675 70.821 85.5981 80.5873C86.8861 80.8734 88.1768 81.2629 89.4858 81.7865C95.8079 84.3155 100.264 90.4262 103.509 96.1957L103.522 96.2189C103.704 96.5425 103.877 96.8713 104.047 97.2004L104.163 97.423C104.308 97.7042 104.455 97.9871 104.605 98.266C105.558 100.259 104.719 102.656 102.726 103.609C100.795 104.532 98.4934 103.77 97.4849 101.91C96.4724 99.9268 95.3456 98.01 94.0532 96.1937C91.8262 93.0639 89.1372 90.2634 86.5142 89.2142C83.5313 88.0211 80.5681 87.759 76.3472 87.9935C74.1707 88.1144 72.0005 88.3331 69.8318 88.5517C69.5517 88.5799 69.2717 88.6081 68.9917 88.6361C66.1777 88.9175 62.9672 89.2359 59.2749 89.4906C51.0174 90.06 44.4888 87.489 40.3667 82.39C36.372 77.4484 35.1744 70.7893 36.02 64.1019C36.6115 56.1795 39.6719 51.3183 43.0435 48.4701C44.9091 46.894 47.189 45.6351 49.605 45.1498C49.6981 45.1311 49.7922 45.1134 49.8862 45.099C49.8877 45.1023 49.8996 45.0955 49.897 45.098C52.0809 44.7651 54.1217 46.2657 54.4546 48.4496C54.5464 49.0522 54.5 49.6716 54.3165 50.2528C54.2805 50.3647 54.2407 50.4753 54.1956 50.584L54.1867 50.6052C54.0398 50.9529 53.843 51.277 53.6067 51.5712L53.5864 51.596C53.4181 51.8002 53.2295 51.9875 53.0244 52.1547C52.9749 52.1952 52.9242 52.2343 52.8726 52.2724C52.8298 52.3041 52.7862 52.3348 52.742 52.3648Z" fill="#0A2D86"/>
<path fill-rule="evenodd" clip-rule="evenodd" d="M104 18C114.486 18 125.224 23.2359 130.507 32.1836C137.246 33.1797 142.697 38.1304 144.426 44.6016C144.977 44.6084 145.563 44.6425 146.172 44.7168C149.715 45.1489 154.143 46.989 156.625 52.3076C158.774 56.9122 159.075 62.2935 158.95 66.1895C158.889 68.1107 158.719 69.7946 158.558 71.0312C162.568 75.0652 165 80.672 165 87C165 94.9308 160.984 101.92 154.891 106.051C153.868 115.58 145.8 123 136 123C132.022 123 127.885 121.389 124.533 119.265C123.036 118.316 121.578 117.19 120.276 115.93C120.748 117.538 121 119.24 121 121C121 128.854 115.969 135.532 108.955 137.99C110.638 140.956 113.207 142.678 115.734 143.69C117.372 141.454 120.016 140 123 140C127.971 140 132 144.029 132 149C132 153.971 127.971 158 123 158C118.976 158 115.568 155.359 114.417 151.715C114.3 151.677 114.18 151.641 114.062 151.601C109.962 150.21 104.815 147.315 101.683 141.363C101.244 140.529 100.871 139.683 100.554 138.834C91.7698 137.64 85 130.111 85 121C85 118.659 85.4474 116.422 86.2607 114.37C65.1979 115.904 52.0356 106.522 46.7129 96.1006C46.0033 96.6635 45.2407 97.1598 44.4336 97.5908C40.9104 99.4723 36.7788 100 33 100C20.8497 100 11 90.1502 11 78C11 75.6838 11.5889 71.0178 13.8574 66.6543C15.7568 63.001 18.9605 59.3804 24.001 57.7832C24.0487 52.0035 25.9999 46.8881 29.6934 43.1943C33.4334 39.4543 38.631 37.501 44.5 37.501C44.7534 37.501 45.0439 37.4903 45.4189 37.4766C45.5795 37.4707 45.7557 37.4635 45.9512 37.457C49.4574 29.1027 57.0679 23.5 67 23.5H67.167C69.4524 23.4994 72.4926 23.4986 75.6953 24.5371C77.8459 25.2345 79.9617 26.3563 82.0303 28.0703C87.3447 21.9084 95.2145 18 104 18ZM103.553 111.015C101.49 111.642 99.48 112.18 97.5244 112.631C94.7996 114.417 93 117.498 93 121C93 125.102 95.4705 128.625 99.0039 130.167C98.9738 128.149 99.143 126.256 99.3906 124.597C99.7389 122.263 100.26 120.268 100.695 118.851C100.914 118.139 101.112 117.566 101.261 117.159C101.34 116.944 101.399 116.659 101.529 116.464C101.527 116.467 101.519 116.489 101.596 116.489C101.574 116.48 101.552 116.471 101.53 116.462C102.38 114.423 104.722 113.458 106.761 114.308C108.799 115.157 109.763 117.497 108.915 119.536L108.773 119.909C108.668 120.196 108.515 120.635 108.343 121.196C107.476 124.023 106.901 127.131 106.969 130.179C110.517 128.643 113 125.112 113 121C113 115.663 108.818 111.302 103.553 111.015ZM142.5 72.5C136.946 72.5 132.877 74.4676 130.368 78.2051C130.361 78.2164 130.353 78.2281 130.346 78.2393L130.332 78.2588C130.255 78.3747 130.173 78.4857 130.087 78.5908C129.936 78.7733 129.766 78.9445 129.579 79.1025C129.339 79.3053 129.079 79.4776 128.804 79.6162C128.683 79.6771 128.559 79.7321 128.433 79.7803L128.429 79.7822C128.139 79.8931 127.839 79.9672 127.536 80.0078C127.442 80.0206 127.347 80.031 127.252 80.0371C127.18 80.0417 127.108 80.0442 127.036 80.0449C127.001 80.0452 126.966 80.0436 126.931 80.043C126.539 80.0365 126.145 79.9739 125.764 79.8496L125.761 79.8486C125.692 79.8263 125.623 79.8025 125.556 79.7764C125.291 79.6736 125.033 79.5405 124.787 79.377C124.598 79.2512 124.422 79.1123 124.262 78.9619C124.15 78.8569 124.044 78.744 123.942 78.624L123.898 78.5723C121.508 75.7681 117.962 74 114 74C106.82 74 101 79.8203 101 87C101 90.7308 102.56 95.2938 105.206 98.9072C107.888 102.569 111.086 104.5 114 104.5C114.257 104.5 114.508 104.524 114.751 104.57C115.029 104.518 115.317 104.494 115.611 104.502C119.654 104.614 122.315 103.955 124.051 103.065C125.724 102.208 126.738 101.038 127.381 99.6719C128.783 96.6917 128.555 92.4456 127.606 88.416C127.101 86.2656 128.434 84.1124 130.584 83.6064C132.734 83.1005 134.888 84.4336 135.394 86.584C136.445 91.0544 137.217 97.5584 134.619 103.078C133.262 105.962 131.026 108.48 127.699 110.185C127.301 110.389 126.889 110.58 126.466 110.758C127.16 111.364 127.948 111.957 128.816 112.507C131.37 114.125 134.023 115 136 115C142.075 115 147 110.075 147 104C147 100.813 145.649 97.9469 143.478 95.9326C141.858 94.4303 141.764 91.8999 143.266 90.2803C144.768 88.6606 147.298 88.5652 148.918 90.0674C150.877 91.8847 152.455 94.1144 153.512 96.6182C155.692 94.0123 157 90.6579 157 87C157 78.7157 150.784 72.5 142.5 72.5ZM76.6338 66.7471C67.7872 66.2493 61.7849 68.5589 57.9961 71.8457C53.9757 75.3336 52.0001 80.3018 52 85.5C52.0002 91.9603 58.8815 104.433 76.7734 106.355C73.0377 103.197 72 99.0619 72 95.5C72 89.4768 74.6696 83.3539 81.1084 80.9648C83.1795 80.1964 85.4815 81.2522 86.25 83.3232C87.0184 85.3943 85.9626 87.6963 83.8916 88.4648C81.5721 89.3254 80 91.6341 80 95.5C80 97.7109 80.598 99.5472 82.9365 100.954C85.3416 102.401 89.9557 103.628 98.5 103.284C95.1381 98.5459 93 92.5211 93 87C93 81.2919 95.2779 76.1153 98.9736 72.3301C96.9948 72.7709 94.9836 73 93 73C86.6913 73 80.8055 70.8856 76.6338 66.7471ZM44.5 45.501C40.4281 45.501 37.3753 46.826 35.3506 48.8506C33.4294 50.7719 32.1377 53.6195 32.0107 57.3848C35.3233 58.0782 38.4275 59.7264 40.5762 62.4736C43.6749 66.4359 44.1099 71.7959 41.6865 77.5518C40.8293 79.5876 38.4842 80.5435 36.4482 79.6865C34.4122 78.8292 33.4562 76.4833 34.3135 74.4473C35.8896 70.7037 35.1837 68.564 34.2744 67.4014C33.2387 66.0774 31.1808 65.0438 28.4189 65.0029C24.6274 65.4018 22.3954 67.5736 20.9551 70.3438C19.4114 73.3129 19 76.647 19 78C19 85.732 25.268 92 33 92C36.1868 92 38.8048 91.5275 40.665 90.5342C42.2552 89.685 43.4602 88.3823 44.0078 86.041C44.0028 85.8601 44 85.6795 44 85.5C44.0001 78.2721 46.7747 70.9898 52.7539 65.8027C54.3119 64.4512 56.0574 63.267 57.9863 62.2725C57.0405 61.7044 56.1338 61.0884 55.2725 60.4326C50.3347 56.673 46.4657 51.2802 45.2041 45.4873C44.9362 45.4951 44.6892 45.501 44.5 45.501ZM144.616 52.6084C143.589 57.3586 140.577 61.3672 136.503 63.7236C134.002 65.1712 131.098 66 128 66C123.252 66 118.959 64.0533 115.875 60.915C114.65 62.8793 113.115 64.6382 111.358 66.165C112.224 66.0564 113.105 66 114 66C118.76 66 123.151 67.5868 126.672 70.2539C130.868 66.2928 136.448 64.5 142.5 64.5C145.51 64.5 148.358 65.0498 150.95 66.0586L150.954 65.9346C151.065 62.4557 150.726 58.5864 149.375 55.6914C148.357 53.5108 146.785 52.8502 145.203 52.6572C145.005 52.6331 144.809 52.6173 144.616 52.6084ZM104 26C96.734 26 90.3255 29.688 86.5508 35.3105C86.7975 37.9407 87.9274 40.5386 89.6162 42.543C91.5485 44.836 93.8867 46 96 46C99.1608 46 102.159 44.0452 103.803 40.7256C104.783 38.7459 107.182 37.9359 109.162 38.916C111.142 39.8963 111.952 42.2957 110.972 44.2754C108.187 49.8983 102.646 54 96 54C90.9338 54 86.5218 51.2854 83.499 47.6982C80.779 44.4703 78.92 40.2502 78.5625 35.7959C76.582 33.6429 74.7968 32.6554 73.2275 32.1465C71.3165 31.5268 69.4264 31.5 67 31.5C59.9827 31.5 54.8412 35.5759 52.7812 42.0391C53.0033 45.9994 55.6384 50.6574 60.1182 54.0684C63.447 56.6029 67.4737 58.1939 71.6504 58.2734C70.8472 55.4543 70.6148 52.3358 71.0312 49.0039C71.3053 46.8119 73.304 45.2573 75.4961 45.5312C77.6881 45.8053 79.2428 47.804 78.9688 49.9961C78.4827 53.8848 79.2761 56.9679 80.8066 59.2852L80.8213 59.3076L80.8359 59.3281L80.8525 59.3545C81.2421 59.9349 81.6784 60.4665 82.1523 60.9502C84.5836 63.4316 88.3625 65 93 65C102.626 65 111 58.1224 111 50C111 49.8905 111.004 49.7821 111.013 49.6748C111.004 49.4511 111 49.2258 111 49C111 41.9419 115.301 35.8879 121.426 33.3174C117.331 28.8557 110.801 26 104 26ZM127.943 40C122.999 40.0306 119 44.0484 119 49C119 53.9706 123.029 58 128 58C129.638 58 131.174 57.5634 132.497 56.7988C132.622 56.7265 132.745 56.6504 132.866 56.5723C133.005 56.4831 133.139 56.3893 133.272 56.293C133.269 56.2957 133.265 56.2991 133.262 56.3018C133.287 56.2832 133.313 56.2649 133.339 56.2461C133.317 56.2622 133.294 56.2771 133.272 56.293C133.483 56.1405 133.687 55.98 133.883 55.8105C133.966 55.7383 134.049 55.6651 134.13 55.5898C134.152 55.5693 134.174 55.5491 134.196 55.5283C134.36 55.3724 134.518 55.2098 134.67 55.042C134.856 54.8364 135.033 54.6225 135.2 54.4004C135.291 54.2801 135.378 54.1571 135.462 54.0322C135.594 53.8373 135.718 53.637 135.834 53.4316C136.389 52.4522 136.766 51.3591 136.921 50.1953C136.933 50.104 136.944 50.0121 136.953 49.9199C136.981 49.6451 136.997 49.3666 137 49.085V48.9131C136.954 44.0027 132.974 40.0324 128.061 40H127.943Z" fill="url(#paint0_linear_360_654)"/>
<circle cx="123" cy="149" r="4" fill="#001430"/>
<defs>
<linearGradient id="paint0_linear_360_654" x1="38" y1="53" x2="134.5" y2="121.5" gradientUnits="userSpaceOnUse">
<stop stop-color="#06C8F2"/>
<stop offset="0.471154" stop-color="#0FA1EA"/>
<stop offset="1" stop-color="#2643D4"/>
</linearGradient>
</defs>
</svg>
